<svg width="31" height="31" viewBox="0 0 31 31" fill="none" xmlns="http://www.w3.org/2000/svg">
<path fill-rule="evenodd" clip-rule="evenodd" d="M15.5 30.875C17.5191 30.875 19.5184 30.4773 21.3838 29.7046C23.2491 28.932 24.9441 27.7995 26.3718 26.3718C27.7995 24.9441 28.932 23.2491 29.7046 21.3838C30.4773 19.5184 30.875 17.5191 30.875 15.5C30.875 13.4809 30.4773 11.4816 29.7046 9.61624C28.932 7.75086 27.7995 6.05593 26.3718 4.62823C24.9441 3.20053 23.2491 2.06802 21.3838 1.29535C19.5184 0.522686 17.5191 0.125 15.5 0.125C11.4223 0.125 7.51161 1.74486 4.62823 4.62823C1.74486 7.5116 0.125 11.4223 0.125 15.5C0.125 19.5777 1.74486 23.4884 4.62823 26.3718C7.51161 29.2551 11.4223 30.875 15.5 30.875ZM15.1037 21.7183L23.6453 11.4683L21.0213 9.28167L13.6755 18.095L9.87446 14.2922L7.45888 16.7078L12.5839 21.8328L13.9061 23.155L15.1037 21.7183Z" fill="#A19F9F"/>
</svg>
