<svg width="24" height="24" viewBox="0 0 24 24" fill="none" xmlns="http://www.w3.org/2000/svg">
<path d="M20.6665 14.168L20.2256 10.1997C19.9201 7.45022 19.7673 6.07439 18.8422 5.24672C17.9148 4.41797 16.5325 4.41797 13.7657 4.41797H10.234C7.46717 4.41797 6.08375 4.41797 5.1575 5.24672C4.23234 6.07439 4.07959 7.45022 3.77409 10.1997L3.33317 14.168M11.4582 1.16797H14.1665M14.1665 1.16797H16.8748M14.1665 1.16797V4.41797M17.0558 14.168H6.94392C4.57575 14.168 3.39167 14.168 2.55209 14.7562C2.24225 14.9729 1.97142 15.2437 1.75475 15.5536C1.1665 16.3931 1.1665 17.5772 1.1665 19.9454C1.1665 21.1295 1.1665 21.7221 1.46009 22.1413C1.56914 22.298 1.70239 22.4313 1.85984 22.5411C2.27909 22.8346 2.87167 22.8346 4.05575 22.8346H19.9439C21.128 22.8346 21.7206 22.8346 22.1398 22.5411C22.2966 22.4313 22.4298 22.298 22.5396 22.1413C22.8332 21.7221 22.8332 21.1295 22.8332 19.9454C22.8332 17.5772 22.8332 16.3931 22.2449 15.5536C22.0283 15.2437 21.7574 14.9729 21.4476 14.7562C20.608 14.168 19.4239 14.168 17.0558 14.168Z" stroke="#FF6528" stroke-width="1.625" stroke-linecap="round" stroke-linejoin="round"/>
<path d="M8.74984 17.9596L9.82884 18.679C10.1849 18.9164 10.6034 19.0431 11.0313 19.043H12.9683C13.3963 19.0431 13.8148 18.9164 14.1708 18.679L15.2498 17.9596M7.6665 7.66797H9.83317" stroke="#FF6528" stroke-width="1.625" stroke-linecap="round" stroke-linejoin="round"/>
</svg>
