<svg width="20" height="23" viewBox="0 0 20 23" fill="none" xmlns="http://www.w3.org/2000/svg">
<path d="M2.8002 0.601562C2.11063 0.601563 1.44931 0.87549 0.961718 1.36308C0.474123 1.85068 0.200195 2.512 0.200195 3.20156V18.8016C0.200195 19.4911 0.474123 20.1524 0.961718 20.64C1.44931 21.1276 2.11063 21.4016 2.8002 21.4016H8.3343C8.00317 21.0006 7.71677 20.5647 7.4802 20.1016H2.8002C2.45541 20.1016 2.12475 19.9646 1.88096 19.7208C1.63716 19.477 1.5002 19.1463 1.5002 18.8016V3.20156C1.5002 2.85678 1.63716 2.52612 1.88096 2.28232C2.12475 2.03853 2.45541 1.90156 2.8002 1.90156H13.2002C13.545 1.90156 13.8756 2.03853 14.1194 2.28232C14.3632 2.52612 14.5002 2.85678 14.5002 3.20156V9.73016C14.9474 9.7709 15.3807 9.85106 15.8002 9.97066V3.20156C15.8002 2.512 15.5263 1.85068 15.0387 1.36308C14.5511 0.87549 13.8898 0.601563 13.2002 0.601562H2.8002ZM5.4002 11.0016C5.4002 11.3463 5.26323 11.677 5.01943 11.9208C4.77564 12.1646 4.44498 12.3016 4.1002 12.3016C3.75541 12.3016 3.42475 12.1646 3.18096 11.9208C2.93716 11.677 2.8002 11.3463 2.8002 11.0016C2.8002 10.6568 2.93716 10.3261 3.18096 10.0823C3.42475 9.83853 3.75541 9.70156 4.1002 9.70156C4.44498 9.70156 4.77564 9.83853 5.01943 10.0823C5.26323 10.3261 5.4002 10.6568 5.4002 11.0016ZM13.8502 22.7016C15.4017 22.7016 16.8897 22.0852 17.9868 20.9881C19.0839 19.891 19.7002 18.4031 19.7002 16.8516C19.7002 15.3 19.0839 13.8121 17.9868 12.715C16.8897 11.6179 15.4017 11.0016 13.8502 11.0016C12.2987 11.0016 10.8107 11.6179 9.71362 12.715C8.61653 13.8121 8.0002 15.3 8.0002 16.8516C8.0002 18.4031 8.61653 19.891 9.71362 20.9881C10.8107 22.0852 12.2987 22.7016 13.8502 22.7016ZM14.3104 19.9118C14.1883 20.0338 14.0228 20.1024 13.8502 20.1024C13.6776 20.1024 13.512 20.0338 13.39 19.9118C13.2679 19.7897 13.1994 19.6242 13.1994 19.4516C13.1994 19.279 13.2679 19.1134 13.39 18.9914L14.8811 17.5016H11.2502C11.0778 17.5016 10.9125 17.4331 10.7906 17.3112C10.6687 17.1893 10.6002 17.024 10.6002 16.8516C10.6002 16.6792 10.6687 16.5138 10.7906 16.3919C10.9125 16.27 11.0778 16.2016 11.2502 16.2016H14.8811L13.39 14.7118C13.2679 14.5897 13.1994 14.4242 13.1994 14.2516C13.1994 14.079 13.2679 13.9134 13.39 13.7914C13.512 13.6693 13.6776 13.6007 13.8502 13.6007C14.0228 13.6007 14.1883 13.6693 14.3104 13.7914L16.9104 16.3914C17.0313 16.5125 17.0995 16.6765 17.1002 16.8477V16.8555C17.0991 17.0249 17.032 17.1872 16.913 17.3079L16.9091 17.3118L14.3104 19.9118Z" fill="#FF6528"/>
</svg>
