<svg width="20" height="20" viewBox="0 0 20 20" fill="none" xmlns="http://www.w3.org/2000/svg">
<g clip-path="url(#clip0_718_9107)">
<path d="M3.25 7C4.375 4.375 7 2.5 10 2.5C13.75 2.5 16.75 5.25 17.375 8.75H19.875C19.25 3.875 15.125 0 10 0C6.25 0 3 2 1.375 5.125L0 3.75V8.75H5L3.25 7ZM20 11.25H14.875L16.75 13C15.625 15.625 13 17.5 9.875 17.5C6.25 17.5 3.125 14.75 2.5 11.25H0C0.625 16.125 4.875 20 9.875 20C13.625 20 16.875 17.875 18.625 14.875L20 16.25V11.25Z" fill="#FF6528"/>
</g>
<defs>
<clipPath id="clip0_718_9107">
<rect width="20" height="20" fill="white"/>
</clipPath>
</defs>
</svg>
