<svg width="26" height="26" viewBox="0 0 26 26" fill="none" xmlns="http://www.w3.org/2000/svg">
<g clip-path="url(#clip0_802_16316)">
<path d="M22.7567 0.373802C22.7567 0.373802 2.9366 0.367708 2.94229 0.373802C1.11538 0.373802 0.0883789 1.31833 0.0883789 3.24761V23.1401C0.0883789 24.945 1.01179 25.89 2.83707 25.89H22.8136C24.6389 25.89 25.5635 24.9921 25.5635 23.1401V3.24761C25.5639 1.36505 24.6393 0.373802 22.7567 0.373802ZM18.3794 3.35486C18.5856 3.35161 18.7904 3.38943 18.9818 3.46611C19.1733 3.54279 19.3475 3.6568 19.4945 3.8015C19.6414 3.9462 19.7581 4.1187 19.8377 4.30894C19.9173 4.49918 19.9583 4.70336 19.9582 4.90959C19.9581 5.11582 19.917 5.31997 19.8372 5.51015C19.7575 5.70033 19.6407 5.87274 19.4936 6.01732C19.3465 6.16191 19.1722 6.27578 18.9807 6.35231C18.7892 6.42884 18.5844 6.4665 18.3782 6.46308C17.9703 6.45633 17.5815 6.28954 17.2956 5.9987C17.0096 5.70785 16.8494 5.31625 16.8496 4.90837C16.8497 4.5005 17.0102 4.10902 17.2964 3.8184C17.5826 3.52778 17.9716 3.3613 18.3794 3.35486ZM7.23066 3.45521C7.43686 3.4519 7.64166 3.48966 7.83313 3.56629C8.02459 3.64292 8.19889 3.75689 8.34587 3.90155C8.49286 4.04621 8.60958 4.21868 8.68924 4.4089C8.76891 4.59912 8.80992 4.80329 8.8099 5.00952C8.80987 5.21575 8.7688 5.41992 8.68909 5.61012C8.60937 5.80032 8.4926 5.97275 8.34558 6.11738C8.19857 6.262 8.02423 6.37592 7.83275 6.4525C7.64127 6.52908 7.43646 6.56679 7.23025 6.56343C6.82243 6.55678 6.43356 6.39009 6.14753 6.09932C5.86149 5.80855 5.70122 5.417 5.70127 5.00912C5.70132 4.60124 5.8617 4.20973 6.14781 3.91903C6.43392 3.62833 6.82284 3.46175 7.23066 3.45521ZM10.904 13.9828C10.8998 14.1487 10.8309 14.3063 10.7121 14.4222C10.5933 14.538 10.4339 14.6029 10.268 14.6029C10.102 14.6029 9.94267 14.538 9.82386 14.4222C9.70504 14.3063 9.6362 14.1487 9.632 13.9828V9.52946H9.20585V14.619H9.20341V21.8108C9.20341 21.9221 9.18148 22.0324 9.13887 22.1353C9.09626 22.2381 9.03381 22.3316 8.95508 22.4103C8.87635 22.489 8.78289 22.5515 8.68002 22.5941C8.57716 22.6367 8.46691 22.6586 8.35557 22.6586C8.24423 22.6586 8.13398 22.6367 8.03111 22.5941C7.92825 22.5515 7.83478 22.489 7.75605 22.4103C7.67732 22.3316 7.61487 22.2381 7.57226 22.1353C7.52965 22.0324 7.50772 21.9221 7.50772 21.8108V14.619H6.94832V21.8108C6.94832 22.0357 6.85899 22.2513 6.69999 22.4103C6.54099 22.5693 6.32533 22.6586 6.10047 22.6586C5.87561 22.6586 5.65996 22.5693 5.50096 22.4103C5.34196 22.2513 5.25263 22.0357 5.25263 21.8108V14.619H5.24938V9.52946H4.82282V13.9828C4.82282 14.1514 4.75581 14.3132 4.63654 14.4325C4.51727 14.5518 4.35551 14.6188 4.18683 14.6188C4.01816 14.6188 3.85639 14.5518 3.73712 14.4325C3.61785 14.3132 3.55085 14.1514 3.55085 13.9828V9.46243C3.55085 9.44347 3.55166 9.42532 3.55329 9.40799V8.62311C3.55323 8.42672 3.59188 8.23224 3.66701 8.05078C3.74214 7.86933 3.85229 7.70446 3.99116 7.56558C4.13003 7.42671 4.29491 7.31656 4.47636 7.24143C4.65782 7.1663 4.8523 7.12765 5.04869 7.12771H9.40491C9.60131 7.12765 9.79579 7.1663 9.97724 7.24143C10.1587 7.31656 10.3236 7.42671 10.4624 7.56558C10.6013 7.70446 10.7115 7.86933 10.7866 8.05078C10.8617 8.23224 10.9004 8.42672 10.9003 8.62311V9.40799C10.9019 9.42587 10.9028 9.44401 10.9028 9.46243V13.9828H10.904ZM13.2395 22.5567H12.143V3.38777H13.2395V22.5567ZM22.2867 13.9413C22.1239 13.9848 21.9505 13.9619 21.8046 13.8776C21.6587 13.7934 21.5521 13.6547 21.5083 13.492L20.4131 9.43033H19.9532L21.9125 16.779H20.0747V21.8526C20.0747 22.0401 20.0002 22.2198 19.8677 22.3523C19.7352 22.4849 19.5554 22.5593 19.368 22.5593C19.1806 22.5593 19.0008 22.4849 18.8683 22.3523C18.7358 22.2198 18.6613 22.0401 18.6613 21.8526V16.7794H18.0995V21.8526C18.0995 22.04 18.025 22.2197 17.8926 22.3522C17.7601 22.4847 17.5804 22.5591 17.393 22.5591C17.2056 22.5591 17.0259 22.4847 16.8935 22.3522C16.761 22.2197 16.6865 22.04 16.6865 21.8526V16.7794H14.8474L16.7999 9.43033H16.3518L15.276 13.492C15.2286 13.6505 15.1212 13.7842 14.9768 13.8648C14.8323 13.9454 14.6622 13.9665 14.5024 13.9237C14.3426 13.8809 14.2058 13.7775 14.121 13.6354C14.0363 13.4934 14.0102 13.3239 14.0483 13.163L15.4178 7.99261C15.4246 7.96824 15.4326 7.94454 15.4418 7.92152C15.5106 7.66417 15.6624 7.43671 15.8737 7.27439C16.0849 7.11207 16.3438 7.02396 16.6102 7.02371H20.1384C20.3937 7.02389 20.6424 7.10477 20.849 7.25478C21.0555 7.40479 21.2094 7.61626 21.2885 7.85896C21.3107 7.90067 21.3286 7.94508 21.3422 7.99221L22.7364 13.163C22.7799 13.3258 22.757 13.4991 22.6727 13.6451C22.5885 13.791 22.4494 13.8975 22.2867 13.9413Z" fill="#FF6528"/>
</g>
<defs>
<clipPath id="clip0_802_16316">
<rect width="26" height="26" fill="white"/>
</clipPath>
</defs>
</svg>
