<svg width="24" height="21" viewBox="0 0 24 21" fill="none" xmlns="http://www.w3.org/2000/svg">
<path d="M11.8333 7.5C17.8164 7.5 22.6667 6.04493 22.6667 4.25C22.6667 2.45507 17.8164 1 11.8333 1C5.85025 1 1 2.45507 1 4.25C1 6.04493 5.85025 7.5 11.8333 7.5Z" stroke="#FFAC76" stroke-width="1.625" stroke-linecap="round" stroke-linejoin="round"/>
<path d="M11.8333 16.1667C13.2741 16.1667 14.079 16.9878 14.4539 17.7007C14.5409 17.8703 14.5637 18.0657 14.5182 18.2508C14.4726 18.4359 14.3616 18.5983 14.2058 18.7082C13.5035 19.176 12.6771 19.4227 11.8333 19.4167C10.9363 19.4167 10.1108 19.1512 9.4608 18.7071C9.30494 18.5973 9.19401 18.4348 9.14843 18.2497C9.10284 18.0646 9.12567 17.8692 9.21271 17.6996C9.58755 16.99 10.3925 16.1667 11.8333 16.1667ZM11.8333 16.1667V7.5" stroke="#FFAC76" stroke-width="1.625" stroke-linecap="round" stroke-linejoin="round"/>
</svg>
