<svg width="22" height="18" viewBox="0 0 22 18" fill="none" xmlns="http://www.w3.org/2000/svg">
<path d="M21.7898 6.53953L20.2406 1.12286C20.1776 0.895458 20.0417 0.694981 19.8539 0.552145C19.6661 0.409309 19.4366 0.331989 19.2006 0.332031H2.79894C2.31144 0.332031 1.88894 0.657031 1.75894 1.12286L0.209771 6.53953C0.014771 7.22203 0.534771 7.91536 1.24977 7.91536H3.6331L2.3331 17.6654H4.49977L5.2256 12.2487H16.7848L17.4998 17.6654H19.6664L18.3664 7.91536H20.7498C21.4648 7.91536 21.9848 7.22203 21.7898 6.53953ZM5.50727 10.082L5.79977 7.91536H16.1998L16.4923 10.082H5.50727Z" fill="#FF6528"/>
</svg>
