<svg width="22" height="18" viewBox="0 0 22 18" fill="none" xmlns="http://www.w3.org/2000/svg">
<path d="M21.7898 6.2075L20.2406 0.790833C20.1776 0.563426 20.0417 0.36295 19.8539 0.220114C19.6661 0.0772774 19.4366 -4.19414e-05 19.2006 1.7068e-08H2.79894C2.31144 1.7068e-08 1.88894 0.325 1.75894 0.790833L0.209771 6.2075C0.014771 6.89 0.534771 7.58333 1.24977 7.58333H3.6331L2.3331 17.3333H4.49977L5.2256 11.9167H16.7848L17.4998 17.3333H19.6664L18.3664 7.58333H20.7498C21.4648 7.58333 21.9848 6.89 21.7898 6.2075ZM5.50727 9.75L5.79977 7.58333H16.1998L16.4923 9.75H5.50727Z" fill="#D4D4D4"/>
</svg>
