<svg width="26" height="26" viewBox="0 0 26 26" fill="none" xmlns="http://www.w3.org/2000/svg">
<rect width="26" height="26" fill="#FF6528"/>
<path d="M23.7898 10.5395L22.2406 5.12286C22.1776 4.89546 22.0417 4.69498 21.8539 4.55214C21.6661 4.40931 21.4366 4.33199 21.2006 4.33203H4.79894C4.31144 4.33203 3.88894 4.65703 3.75894 5.12286L2.20977 10.5395C2.01477 11.222 2.53477 11.9154 3.24977 11.9154H5.6331L4.3331 21.6654H6.49977L7.2256 16.2487H18.7848L19.4998 21.6654H21.6664L20.3664 11.9154H22.7498C23.4648 11.9154 23.9848 11.222 23.7898 10.5395ZM7.50727 14.082L7.79977 11.9154H18.1998L18.4923 14.082H7.50727Z" fill="white"/>
</svg>
