<svg width="24" height="21" viewBox="0 0 24 21" fill="none" xmlns="http://www.w3.org/2000/svg">
<path d="M11.9998 7.5C17.9829 7.5 22.8332 6.04493 22.8332 4.25C22.8332 2.45507 17.9829 1 11.9998 1C6.01675 1 1.1665 2.45507 1.1665 4.25C1.1665 6.04493 6.01675 7.5 11.9998 7.5Z" stroke="#D4D4D4" stroke-width="1.625" stroke-linecap="round" stroke-linejoin="round"/>
<path d="M11.9998 16.1667C13.4406 16.1667 14.2455 16.9878 14.6204 17.7007C14.7074 17.8703 14.7303 18.0657 14.6847 18.2508C14.6391 18.4359 14.5282 18.5983 14.3723 18.7082C13.67 19.176 12.8436 19.4227 11.9998 19.4167C11.1028 19.4167 10.2773 19.1512 9.6273 18.7071C9.47145 18.5973 9.36052 18.4348 9.31493 18.2497C9.26935 18.0646 9.29217 17.8692 9.37922 17.6996C9.75405 16.99 10.559 16.1667 11.9998 16.1667ZM11.9998 16.1667V7.5" stroke="#D4D4D4" stroke-width="1.625" stroke-linecap="round" stroke-linejoin="round"/>
</svg>
