<svg width="24" height="22" viewBox="0 0 24 22" fill="none" xmlns="http://www.w3.org/2000/svg">
<path d="M11.9998 8.29297C17.9829 8.29297 22.8332 6.83789 22.8332 5.04297C22.8332 3.24804 17.9829 1.79297 11.9998 1.79297C6.01675 1.79297 1.1665 3.24804 1.1665 5.04297C1.1665 6.83789 6.01675 8.29297 11.9998 8.29297Z" stroke="#FF6528" stroke-width="1.625" stroke-linecap="round" stroke-linejoin="round"/>
<path d="M11.9998 16.9596C13.4406 16.9596 14.2455 17.7808 14.6204 18.4936C14.7074 18.6633 14.7303 18.8586 14.6847 19.0438C14.6391 19.2289 14.5282 19.3913 14.3723 19.5011C13.67 19.9689 12.8436 20.2157 11.9998 20.2096C11.1028 20.2096 10.2773 19.9442 9.6273 19.5001C9.47145 19.3902 9.36052 19.2278 9.31493 19.0427C9.26935 18.8575 9.29217 18.6622 9.37922 18.4926C9.75405 17.783 10.559 16.9596 11.9998 16.9596ZM11.9998 16.9596V8.29297" stroke="#FF6528" stroke-width="1.625" stroke-linecap="round" stroke-linejoin="round"/>
</svg>
