<svg width="26" height="26" viewBox="0 0 26 26" fill="none" xmlns="http://www.w3.org/2000/svg">
<rect width="26" height="26" fill="#FF6528"/>
<path d="M12.9998 10.293C18.9829 10.293 23.8332 8.83789 23.8332 7.04297C23.8332 5.24804 18.9829 3.79297 12.9998 3.79297C7.01675 3.79297 2.1665 5.24804 2.1665 7.04297C2.1665 8.83789 7.01675 10.293 12.9998 10.293Z" stroke="white" stroke-width="1.625" stroke-linecap="round" stroke-linejoin="round"/>
<path d="M12.9998 18.9596C14.4406 18.9596 15.2455 19.7808 15.6204 20.4936C15.7074 20.6633 15.7303 20.8586 15.6847 21.0438C15.6391 21.2289 15.5282 21.3913 15.3723 21.5011C14.67 21.9689 13.8436 22.2157 12.9998 22.2096C12.1028 22.2096 11.2773 21.9442 10.6273 21.5001C10.4714 21.3902 10.3605 21.2278 10.3149 21.0427C10.2693 20.8575 10.2922 20.6622 10.3792 20.4926C10.754 19.783 11.559 18.9596 12.9998 18.9596ZM12.9998 18.9596V10.293" stroke="white" stroke-width="1.625" stroke-linecap="round" stroke-linejoin="round"/>
</svg>
