<svg width="24" height="24" viewBox="0 0 24 24" fill="none" xmlns="http://www.w3.org/2000/svg">
<path fill-rule="evenodd" clip-rule="evenodd" d="M5.30894 6.06046C4.08225 7.28704 3.49976 9.33917 3.49976 12.7756C3.49976 16.212 4.08225 18.2642 5.30894 19.4907C6.53564 20.7173 8.58779 21.2996 12.0238 21.2996C15.4602 21.2996 17.5126 20.7173 18.7395 19.4907C19.9663 18.2642 20.5488 16.212 20.5488 12.7756C20.5488 9.33917 19.9663 7.28705 18.7395 6.06048C17.5126 4.83387 15.4602 4.2516 12.0238 4.2516C8.58779 4.2516 6.53564 4.83386 5.30894 6.06046ZM4.24832 4.99975C5.91987 3.32835 8.50472 2.7516 12.0238 2.7516C15.5433 2.7516 18.1284 3.32834 19.8 4.99973C21.4718 6.67115 22.0488 9.25604 22.0488 12.7756C22.0488 16.2952 21.4718 18.8801 19.8 20.5515C18.1284 22.2229 15.5433 22.7996 12.0238 22.7996C8.50472 22.7996 5.91987 22.2229 4.24832 20.5515C2.57676 18.88 1.99976 16.2952 1.99976 12.7756C1.99976 9.25604 2.57676 6.67117 4.24832 4.99975Z" fill="#FF6528" stroke="#FF6528" stroke-width="0.5" stroke-linecap="round" stroke-linejoin="round"/>
<path fill-rule="evenodd" clip-rule="evenodd" d="M2.27515 9.32399C2.27515 8.90978 2.61093 8.57399 3.02515 8.57399H21.0331C21.4474 8.57399 21.7831 8.90978 21.7831 9.32399C21.7831 9.7382 21.4474 10.074 21.0331 10.074H3.02515C2.61093 10.074 2.27515 9.7382 2.27515 9.32399Z" fill="#FF6528" stroke="#FF6528" stroke-width="0.5" stroke-linecap="round" stroke-linejoin="round"/>
<path fill-rule="evenodd" clip-rule="evenodd" d="M15.6785 13.261C15.6785 12.8468 16.0143 12.511 16.4285 12.511H16.4375C16.8517 12.511 17.1875 12.8468 17.1875 13.261C17.1875 13.6752 16.8517 14.011 16.4375 14.011H16.4285C16.0143 14.011 15.6785 13.6752 15.6785 13.261Z" fill="#FF6528" stroke="#FF6528" stroke-width="0.5" stroke-linecap="round" stroke-linejoin="round"/>
<path fill-rule="evenodd" clip-rule="evenodd" d="M11.2791 13.261C11.2791 12.8468 11.6148 12.511 12.0291 12.511H12.0381C12.4523 12.511 12.7881 12.8468 12.7881 13.261C12.7881 13.6752 12.4523 14.011 12.0381 14.011H12.0291C11.6148 14.011 11.2791 13.6752 11.2791 13.261Z" fill="#FF6528" stroke="#FF6528" stroke-width="0.5" stroke-linecap="round" stroke-linejoin="round"/>
<path fill-rule="evenodd" clip-rule="evenodd" d="M6.87134 13.261C6.87134 12.8468 7.20712 12.511 7.62134 12.511H7.63034C8.04455 12.511 8.38034 12.8468 8.38034 13.261C8.38034 13.6752 8.04455 14.011 7.63034 14.011H7.62134C7.20712 14.011 6.87134 13.6752 6.87134 13.261Z" fill="#FF6528" stroke="#FF6528" stroke-width="0.5" stroke-linecap="round" stroke-linejoin="round"/>
<path fill-rule="evenodd" clip-rule="evenodd" d="M15.6785 17.113C15.6785 16.6988 16.0143 16.363 16.4285 16.363H16.4375C16.8517 16.363 17.1875 16.6988 17.1875 17.113C17.1875 17.5272 16.8517 17.863 16.4375 17.863H16.4285C16.0143 17.863 15.6785 17.5272 15.6785 17.113Z" fill="#FF6528" stroke="#FF6528" stroke-width="0.5" stroke-linecap="round" stroke-linejoin="round"/>
<path fill-rule="evenodd" clip-rule="evenodd" d="M11.2791 17.113C11.2791 16.6988 11.6148 16.363 12.0291 16.363H12.0381C12.4523 16.363 12.7881 16.6988 12.7881 17.113C12.7881 17.5272 12.4523 17.863 12.0381 17.863H12.0291C11.6148 17.863 11.2791 17.5272 11.2791 17.113Z" fill="#FF6528" stroke="#FF6528" stroke-width="0.5" stroke-linecap="round" stroke-linejoin="round"/>
<path fill-rule="evenodd" clip-rule="evenodd" d="M6.87134 17.113C6.87134 16.6988 7.20712 16.363 7.62134 16.363H7.63034C8.04455 16.363 8.38034 16.6988 8.38034 17.113C8.38034 17.5272 8.04455 17.863 7.63034 17.863H7.62134C7.20712 17.863 6.87134 17.5272 6.87134 17.113Z" fill="#FF6528" stroke="#FF6528" stroke-width="0.5" stroke-linecap="round" stroke-linejoin="round"/>
<path fill-rule="evenodd" clip-rule="evenodd" d="M16.033 1.30009C16.4472 1.30009 16.783 1.63588 16.783 2.05009V5.31209C16.783 5.72631 16.4472 6.06209 16.033 6.06209C15.6187 6.06209 15.283 5.72631 15.283 5.31209V2.05009C15.283 1.63588 15.6187 1.30009 16.033 1.30009Z" fill="#FF6528" stroke="#FF6528" stroke-width="0.5" stroke-linecap="round" stroke-linejoin="round"/>
<path fill-rule="evenodd" clip-rule="evenodd" d="M8.02466 1.30009C8.43887 1.30009 8.77466 1.63588 8.77466 2.05009V5.31209C8.77466 5.72631 8.43887 6.06209 8.02466 6.06209C7.61044 6.06209 7.27466 5.72631 7.27466 5.31209V2.05009C7.27466 1.63588 7.61044 1.30009 8.02466 1.30009Z" fill="#FF6528" stroke="#FF6528" stroke-width="0.5" stroke-linecap="round" stroke-linejoin="round"/>
</svg>
