<svg width="14" height="14" viewBox="0 0 14 14" fill="none" xmlns="http://www.w3.org/2000/svg">
<path fill-rule="evenodd" clip-rule="evenodd" d="M3.42015 3.73003C2.74547 4.40465 2.4251 5.53332 2.4251 7.42336C2.4251 9.3134 2.74547 10.4421 3.42015 11.1167C4.09483 11.7913 5.22352 12.1116 7.1133 12.1116C9.00337 12.1116 10.1322 11.7913 10.8069 11.1167C11.4817 10.4421 11.802 9.3134 11.802 7.42336C11.802 5.53332 11.4817 4.40466 10.8069 3.73004C10.1322 3.0554 9.00337 2.73516 7.1133 2.73516C5.22352 2.73516 4.09483 3.0554 3.42015 3.73003ZM2.83681 3.14664C3.75616 2.22737 5.17783 1.91016 7.1133 1.91016C9.04903 1.91016 10.4708 2.22736 11.3903 3.14662C12.3097 4.06591 12.627 5.4876 12.627 7.42336C12.627 9.35912 12.3097 10.7808 11.3903 11.7001C10.4708 12.6194 9.04903 12.9366 7.1133 12.9366C5.17783 12.9366 3.75616 12.6193 2.83681 11.7001C1.91745 10.7808 1.6001 9.35912 1.6001 7.42336C1.6001 5.4876 1.91745 4.06592 2.83681 3.14664Z" fill="#FF6528"/>
<path fill-rule="evenodd" clip-rule="evenodd" d="M1.75146 5.52578C1.75146 5.29796 1.93615 5.11328 2.16396 5.11328H12.0684C12.2962 5.11328 12.4809 5.29796 12.4809 5.52578C12.4809 5.7536 12.2962 5.93828 12.0684 5.93828H2.16396C1.93615 5.93828 1.75146 5.7536 1.75146 5.52578Z" fill="#FF6528"/>
<path fill-rule="evenodd" clip-rule="evenodd" d="M9.12354 7.68984C9.12354 7.46203 9.30822 7.27734 9.53604 7.27734H9.54099C9.7688 7.27734 9.95349 7.46203 9.95349 7.68984C9.95349 7.91766 9.7688 8.10234 9.54099 8.10234H9.53604C9.30822 8.10234 9.12354 7.91766 9.12354 7.68984Z" fill="#FF6528"/>
<path fill-rule="evenodd" clip-rule="evenodd" d="M6.70361 7.68984C6.70361 7.46203 6.8883 7.27734 7.11611 7.27734H7.12106C7.34888 7.27734 7.53356 7.46203 7.53356 7.68984C7.53356 7.91766 7.34888 8.10234 7.12106 8.10234H7.11611C6.8883 8.10234 6.70361 7.91766 6.70361 7.68984Z" fill="#FF6528"/>
<path fill-rule="evenodd" clip-rule="evenodd" d="M4.2793 7.68984C4.2793 7.46203 4.46398 7.27734 4.6918 7.27734H4.69675C4.92456 7.27734 5.10925 7.46203 5.10925 7.68984C5.10925 7.91766 4.92456 8.10234 4.69675 8.10234H4.6918C4.46398 8.10234 4.2793 7.91766 4.2793 7.68984Z" fill="#FF6528"/>
<path fill-rule="evenodd" clip-rule="evenodd" d="M9.12354 9.81094C9.12354 9.58312 9.30822 9.39844 9.53604 9.39844H9.54099C9.7688 9.39844 9.95349 9.58312 9.95349 9.81094C9.95349 10.0388 9.7688 10.2234 9.54099 10.2234H9.53604C9.30822 10.2234 9.12354 10.0388 9.12354 9.81094Z" fill="#FF6528"/>
<path fill-rule="evenodd" clip-rule="evenodd" d="M6.70361 9.81094C6.70361 9.58312 6.8883 9.39844 7.11611 9.39844H7.12106C7.34888 9.39844 7.53356 9.58312 7.53356 9.81094C7.53356 10.0388 7.34888 10.2234 7.12106 10.2234H7.11611C6.8883 10.2234 6.70361 10.0388 6.70361 9.81094Z" fill="#FF6528"/>
<path fill-rule="evenodd" clip-rule="evenodd" d="M4.2793 9.81094C4.2793 9.58312 4.46398 9.39844 4.6918 9.39844H4.69675C4.92456 9.39844 5.10925 9.58312 5.10925 9.81094C5.10925 10.0388 4.92456 10.2234 4.69675 10.2234H4.6918C4.46398 10.2234 4.2793 10.0388 4.2793 9.81094Z" fill="#FF6528"/>
<path fill-rule="evenodd" clip-rule="evenodd" d="M9.31826 1.11328C9.54608 1.11328 9.73076 1.29796 9.73076 1.52578V3.31988C9.73076 3.5477 9.54608 3.73238 9.31826 3.73238C9.09044 3.73238 8.90576 3.5477 8.90576 3.31988V1.52578C8.90576 1.29796 9.09044 1.11328 9.31826 1.11328Z" fill="#FF6528"/>
<path fill-rule="evenodd" clip-rule="evenodd" d="M4.91396 1.11328C5.14178 1.11328 5.32646 1.29796 5.32646 1.52578V3.31988C5.32646 3.5477 5.14178 3.73238 4.91396 3.73238C4.68615 3.73238 4.50146 3.5477 4.50146 3.31988V1.52578C4.50146 1.29796 4.68615 1.11328 4.91396 1.11328Z" fill="#FF6528"/>
</svg>
