<svg width="15" height="15" viewBox="0 0 15 15" fill="none" xmlns="http://www.w3.org/2000/svg">
<path fill-rule="evenodd" clip-rule="evenodd" d="M9.5715 5.42068C9.77896 5.62814 9.77896 5.96451 9.5715 6.17198L6.17716 9.56631C5.9697 9.77378 5.63333 9.77378 5.42586 9.56631C5.2184 9.35884 5.2184 9.02247 5.42586 8.81501L8.8202 5.42068C9.02766 5.21321 9.36403 5.21321 9.5715 5.42068Z" fill="#FF444F"/>
<path fill-rule="evenodd" clip-rule="evenodd" d="M5.4244 5.41945C5.63186 5.21199 5.96823 5.21199 6.1757 5.41945L9.5757 8.81945C9.78317 9.02692 9.78317 9.36329 9.5757 9.57076C9.36823 9.77822 9.03186 9.77822 8.8244 9.57076L5.4244 6.17076C5.21693 5.96329 5.21693 5.62692 5.4244 5.41945Z" fill="#FF444F"/>
<path fill-rule="evenodd" clip-rule="evenodd" d="M2.00575 2.00575C3.18709 0.824406 5.01376 0.416748 7.50008 0.416748C9.9864 0.416748 11.8131 0.824406 12.9944 2.00575C14.1758 3.18709 14.5834 5.01376 14.5834 7.50008C14.5834 9.9864 14.1758 11.8131 12.9944 12.9944C11.8131 14.1758 9.9864 14.5834 7.50008 14.5834C5.01376 14.5834 3.18709 14.1758 2.00575 12.9944C0.824406 11.8131 0.416748 9.9864 0.416748 7.50008C0.416748 5.01376 0.824406 3.18709 2.00575 2.00575ZM2.75705 2.75705C1.89078 3.62332 1.47925 5.07269 1.47925 7.50008C1.47925 9.92747 1.89078 11.3768 2.75705 12.2431C3.62332 13.1094 5.07269 13.5209 7.50008 13.5209C9.92747 13.5209 11.3768 13.1094 12.2431 12.2431C13.1094 11.3768 13.5209 9.92747 13.5209 7.50008C13.5209 5.07269 13.1094 3.62332 12.2431 2.75705C11.3768 1.89078 9.92747 1.47925 7.50008 1.47925C5.07269 1.47925 3.62332 1.89078 2.75705 2.75705Z" fill="#FF444F"/>
</svg>
