<svg width="45" height="45" viewBox="0 0 45 45" fill="none" xmlns="http://www.w3.org/2000/svg">
<g filter="url(#filter0_d_2649_19748)">
<circle cx="22.5" cy="21.5" r="18.5" fill="white"/>
</g>
<path d="M27.7591 13.7155C27.4933 12.914 26.677 11.9648 25.7657 11.7686C25.3945 11.6884 24.8334 11.699 24.3461 11.7306L24.1204 11.7433C23.07 11.796 22.0343 11.9985 21.161 12.1905C18.9672 12.6735 16.4824 13.2198 14.141 14.0109C13.9554 14.0741 13.7634 14.1374 13.5672 14.2007C12.2932 14.6162 10.8482 15.0866 9.81254 16.0084C9.20926 16.5463 8.73043 17.2994 8.42879 18.1811C8.01535 19.3961 7.95418 20.744 8.25793 21.9737C8.81902 24.2582 10.2914 24.5851 11.846 24.9311C12.0126 24.9669 12.1877 25.0049 12.3649 25.0471C13.1939 25.2433 14.0376 25.3424 14.8687 25.3424C18.4947 25.3424 21.5976 23.5136 24.4685 21.6405C25.6223 20.8853 26.4639 20.1766 27.1073 19.413C28.3687 17.9237 28.3434 15.479 27.7591 13.7155Z" fill="#E4E3DE"/>
<path d="M27.6241 13.3828C27.2445 13.4925 26.8669 13.6043 26.4872 13.714C22.6059 14.8467 20.0135 16.2009 16.6111 18.382C15.683 18.9769 14.6663 20.0801 14.3288 21.1327C14.0355 22.0481 13.909 22.8412 13.4871 23.7061C13.1812 24.3326 12.5653 24.6891 11.8945 24.9401C12.0485 24.9738 12.2046 25.0076 12.3691 25.0477C13.1981 25.2438 14.0419 25.343 14.873 25.343C18.499 25.343 21.6019 23.5141 24.4727 21.641C25.6266 20.8859 26.4682 20.1771 27.1116 19.4135C28.3709 17.9243 28.3455 15.4774 27.7613 13.714C27.7254 13.6043 27.6769 13.4946 27.6241 13.3828Z" fill="#CDCBBF"/>
<path d="M7.33613 15.9135C7.00285 16.6771 6.85308 17.6053 7.19058 18.3942C7.57238 19.2843 8.44988 19.3708 9.28519 19.5586C11.171 19.9846 13.6643 20.8516 15.5943 20.4128C16.7587 20.1492 17.8935 19.375 18.9271 18.8034C21.3972 17.4323 23.8357 15.9895 26.3964 14.785C27.0018 14.5003 28.6429 14.1037 28.6366 13.2494C28.6345 12.9457 28.6366 12.6419 28.6366 12.3382C28.6366 11.7138 28.529 10.9059 27.9384 10.5557C27.5967 10.3532 27.1706 10.233 26.793 10.1128C26.1918 9.92082 25.5822 9.70988 24.9747 9.54535C23.205 9.06019 21.3023 8.82605 19.484 9.14878C16.1048 9.75207 13.1074 11.2181 10.3335 13.2009C9.5341 13.7704 8.703 14.3168 8.00691 15.015C7.66941 15.3525 7.46269 15.6246 7.33613 15.9135Z" fill="#FAC11D"/>
<path d="M13.0674 12.4906C14.5334 12.6678 15.8539 12.8893 17.6194 13.3808C19.482 13.8997 20.1507 14.5262 20.3827 16.4289C20.6189 18.3695 20.9944 21.3121 20.1422 23.1683C19.9207 23.6471 19.6043 24.1281 19.2668 24.5056C19.5221 24.5731 21.5196 23.8686 22.3992 23.2105C23.8589 22.1199 24.1247 20.7552 24.1416 19.0424C24.1585 17.4456 24.0108 14.7498 23.4961 13.3492C23.0616 12.1637 21.8888 11.7313 20.7666 11.3832C19.9608 11.1343 18.1826 10.6513 16.7377 10.5099C15.74 10.4108 14.8835 10.588 14.6832 10.6555C14.1727 10.8264 13.1939 11.3748 12.4261 11.8325C11.8692 12.1658 11.4031 12.4674 11.4031 12.4674C11.4031 12.4674 12.173 12.3831 13.0674 12.4906Z" fill="#2F2F2F"/>
<path d="M37.5594 22.6843C37.2936 21.8827 36.4773 20.9335 35.566 20.7373C35.1948 20.6572 34.6337 20.6677 34.1464 20.6994L33.9207 20.712C32.8703 20.7648 31.8346 20.9673 30.9613 21.1592C28.7675 21.6423 26.2827 22.1886 23.9413 22.9796C23.7556 23.0429 23.5637 23.1062 23.3675 23.1694C22.0935 23.5871 20.6485 24.0575 19.6128 24.9793C19.0096 25.5172 18.5307 26.2702 18.2291 27.1519C17.8156 28.3669 17.7545 29.7148 18.0582 30.9446C18.6193 33.2291 20.0896 33.556 21.6463 33.9019C21.8129 33.9378 21.988 33.9758 22.1652 34.018C22.9942 34.2141 23.8379 34.3133 24.669 34.3133C28.295 34.3133 31.3979 32.4844 34.2688 30.6113C35.4226 29.8562 36.2642 29.1474 36.9076 28.3838C38.169 26.8925 38.1437 24.4477 37.5594 22.6843Z" fill="#E4E3DE"/>
<path d="M37.4225 22.3555C37.0428 22.4652 36.6652 22.577 36.2855 22.6866C32.4043 23.8194 28.4112 25.007 25.2577 27.5382C24.5004 28.1457 23.7664 28.884 23.5639 29.8332C23.3614 30.7719 23.7073 31.816 23.2854 32.6809C22.9796 33.3073 22.3637 33.6638 21.6929 33.9148C21.8469 33.9486 22.0029 33.9823 22.1675 34.0224C22.9965 34.2186 23.8402 34.3177 24.6713 34.3177C28.2973 34.3177 31.4002 32.4889 34.2711 30.6158C35.4249 29.8606 36.2665 29.1519 36.9099 28.3883C38.1692 26.8991 38.1439 24.4522 37.5596 22.6888C37.5237 22.5791 37.4773 22.4673 37.4225 22.3555Z" fill="#CDCBBF"/>
<path d="M17.1175 25.6246C16.7779 26.6308 17.1723 27.6918 18.3304 27.6243C19.6635 27.5484 21.0979 27.5885 22.4099 27.8627C23.2895 28.0462 24.1459 28.352 25.0234 28.5292C25.5044 28.6263 26.1055 28.7275 26.6076 28.6178C27.0231 28.5271 27.3901 28.2128 27.7656 28.023C29.3223 27.2341 30.7757 26.3017 32.3514 25.5508C33.3301 25.0846 34.2941 24.591 35.2623 24.1059C36.0554 23.7093 37.3379 23.3887 37.724 22.4732C38.6057 20.3997 35.758 18.8029 34.1444 18.4106C32.3493 17.9739 30.1703 17.8242 28.3689 18.2671C27.0442 18.592 25.7279 18.9822 24.4644 19.5095C23.2304 20.0263 22.2264 20.752 21.119 21.4586C19.9672 22.1948 18.7565 23.1377 17.8832 24.1987C17.5731 24.5784 17.301 25.0825 17.1175 25.6246Z" fill="#EC6C30"/>
<path d="M31.7187 18.6243C32.6511 19.004 33.3704 19.8709 33.5707 20.8581C33.5813 20.9066 33.5897 20.9572 33.5792 21.0079C33.5644 21.0754 33.5096 21.1302 33.4505 21.1661C33.2332 21.2905 32.9443 21.1808 32.7755 20.9952C32.6068 20.8096 32.5224 20.5649 32.4106 20.3392C32.2482 20.0101 32.0225 19.7127 31.7482 19.4701C31.6238 19.3605 31.4846 19.2508 31.4318 19.0947C31.3749 18.9323 31.4487 18.5842 31.7187 18.6243ZM27.9282 19.0356C28.5821 19.6958 29.1347 20.4552 29.5608 21.28C29.7464 21.6386 29.8962 22.1153 29.8245 22.514C29.7549 22.9105 29.5397 23.1172 29.1537 22.9991C28.8879 22.9253 28.7466 22.0815 28.5357 21.4297C28.4133 21.0522 28.0611 20.394 27.8227 20.0755C27.5843 19.757 27.2595 19.428 27.2637 19.0293C27.2468 18.8795 27.5147 18.7361 27.9282 19.0356ZM24.7409 20.0439C24.9624 20.1557 25.1016 20.3561 25.2493 20.5544C25.3357 20.6725 25.4075 20.8012 25.4771 20.9298C26.0171 21.9128 26.5739 22.9844 26.42 24.0939C26.3989 24.2458 26.3609 24.4019 26.2681 24.5263C26.1753 24.6487 26.015 24.7309 25.8652 24.693C25.6648 24.6233 25.5551 23.8998 25.4011 23.5054C25.34 23.3493 25.2788 23.1911 25.2261 23.0329C24.9814 22.3073 24.8907 21.5247 24.5279 20.8539C24.435 20.6809 24.319 20.5016 24.3359 20.3076C24.3486 20.1072 24.5848 19.9279 24.7409 20.0439ZM21.2647 22.2735C21.2857 21.9149 21.7477 22.0267 21.8426 22.2925C21.9903 22.7059 22.0536 23.0835 22.2898 23.4526C22.7201 24.1213 22.8319 24.5242 22.8172 25.254C22.815 25.3785 22.8108 25.5072 22.7581 25.6211C22.6315 25.8953 22.1991 25.9544 22.0029 25.7223C21.8257 25.5135 21.8743 25.2034 21.8405 24.9313C21.8004 24.6065 21.6338 24.3154 21.5115 24.0137C21.2731 23.4126 21.1486 22.9105 21.2647 22.2735Z" fill="#F4865C"/>
<defs>
<filter id="filter0_d_2649_19748" x="0" y="0" width="45" height="45" filterUnits="userSpaceOnUse" color-interpolation-filters="sRGB">
<feFlood flood-opacity="0" result="BackgroundImageFix"/>
<feColorMatrix in="SourceAlpha" type="matrix" values="0 0 0 0 0 0 0 0 0 0 0 0 0 0 0 0 0 0 127 0" result="hardAlpha"/>
<feOffset dy="1"/>
<feGaussianBlur stdDeviation="2"/>
<feComposite in2="hardAlpha" operator="out"/>
<feColorMatrix type="matrix" values="0 0 0 0 0 0 0 0 0 0 0 0 0 0 0 0 0 0 0.25 0"/>
<feBlend mode="normal" in2="BackgroundImageFix" result="effect1_dropShadow_2649_19748"/>
<feBlend mode="normal" in="SourceGraphic" in2="effect1_dropShadow_2649_19748" result="shape"/>
</filter>
</defs>
</svg>
