<svg width="19" height="20" viewBox="0 0 19 20" fill="none" xmlns="http://www.w3.org/2000/svg">
<path fill-rule="evenodd" clip-rule="evenodd" d="M4.89439 3.39369C4.82989 3.39369 4.76464 3.40009 4.69864 3.41128C3.86014 3.56241 3.10489 4.60513 2.94889 4.87621C2.16739 6.04767 2.77789 8.76402 6.75439 13.0045C10.7324 17.2449 13.2801 17.8942 14.3384 17.0906C14.6339 16.8955 15.6104 16.0935 15.7521 15.1979C15.8136 14.8084 15.7049 14.439 15.4206 14.0696C13.7579 11.917 13.2314 12.1896 12.5061 12.5663C11.4141 13.134 10.3476 13.4323 8.35039 11.3037C6.35614 9.17583 6.63439 8.03876 7.16614 6.87369C7.52014 6.09885 7.77589 5.5391 5.75464 3.76392C5.47189 3.51604 5.18839 3.39369 4.89439 3.39369ZM13.3341 18.6099C11.8476 18.6099 9.49414 17.6216 5.95939 13.8521C0.680893 8.22507 1.21639 5.40477 2.00539 4.22371C2.00389 4.22371 2.99689 2.53089 4.46914 2.23742C5.16964 2.09829 5.85889 2.30539 6.46939 2.83715C8.97589 5.03933 8.74339 6.16042 8.17789 7.39825C7.83064 8.1587 7.55614 8.75922 9.14614 10.4552C10.7369 12.1497 11.3009 11.8602 12.0134 11.4876C13.1751 10.8854 14.2259 10.636 16.2899 13.3075C16.7909 13.96 16.9859 14.6997 16.8524 15.4473C16.5696 17.0402 14.9556 18.0925 14.9399 18.1021C14.5911 18.3692 14.0676 18.6099 13.3341 18.6099Z" fill="white"/>
</svg>
