<svg width="32" height="32" viewBox="0 0 32 32" fill="none" xmlns="http://www.w3.org/2000/svg">
<path fill-rule="evenodd" clip-rule="evenodd" d="M12.7887 20.2734C17.7073 20.2734 21.9113 21.0188 21.9113 23.9961C21.9113 26.9734 17.7353 27.7401 12.7887 27.7401C7.86868 27.7401 3.66602 27.0014 3.66602 24.0228C3.66602 21.0441 7.84068 20.2734 12.7887 20.2734Z" stroke="black" stroke-width="3" stroke-linecap="round" stroke-linejoin="round"/>
<path fill-rule="evenodd" clip-rule="evenodd" d="M12.7887 16.0254C9.55934 16.0254 6.94067 13.408 6.94067 10.1787C6.94067 6.94937 9.55934 4.33203 12.7887 4.33203C16.0167 4.33203 18.6353 6.94937 18.6353 10.1787C18.6473 13.396 16.0473 16.0134 12.83 16.0254H12.7887Z" stroke="black" stroke-width="3" stroke-linecap="round" stroke-linejoin="round"/>
<path d="M21.9775 14.5071C24.1122 14.2071 25.7562 12.3751 25.7602 10.1577C25.7602 7.97241 24.1669 6.15907 22.0775 5.81641" stroke="black" stroke-width="3" stroke-linecap="round" stroke-linejoin="round"/>
<path d="M24.7939 19.6406C26.8619 19.9486 28.3059 20.674 28.3059 22.1673C28.3059 23.1953 27.6259 23.862 26.5273 24.2793" stroke="black" stroke-width="3" stroke-linecap="round" stroke-linejoin="round"/>
</svg>
