<svg width="16" height="17" viewBox="0 0 16 17" fill="none" xmlns="http://www.w3.org/2000/svg">
<path d="M7.58333 12.4449C7.7068 12.3736 7.84643 12.3352 7.98885 12.3333H7.99998H8.01112C8.15354 12.3352 8.29317 12.3736 8.41663 12.4449C8.54331 12.518 8.64851 12.6232 8.72165 12.7499L7.99998 13.1666L7.27832 12.7499C7.35146 12.6232 7.45666 12.518 7.58333 12.4449ZM12.1666 8.98394C12.1716 8.98432 12.1766 8.9847 12.1816 8.98507C12.3148 8.99497 12.4488 8.99997 12.5833 8.99997C12.7229 8.99997 12.8618 8.99459 13 8.98394C13.241 8.96535 13.4795 8.93072 13.714 8.88067C13.7539 8.87215 13.7937 8.86319 13.8333 8.85379V8.99997V9.43986L13.7195 9.43987L13 9.4392L12.1666 9.43842V8.99998V8.98394Z" fill="#FF6528" stroke="#FF6528" stroke-width="5"/>
<circle cx="12.5" cy="3.5" r="3" fill="#FF0303"/>
</svg>
