<svg width="16" height="18" viewBox="0 0 16 18" fill="none" xmlns="http://www.w3.org/2000/svg">
<path d="M7.96836 13.9883H13.6434C13.8644 14.0007 14.0848 13.9563 14.2838 13.8593C14.4827 13.7623 14.6535 13.6159 14.7799 13.4342C14.9062 13.2524 14.9839 13.0414 15.0055 12.8211C15.0271 12.6008 14.992 12.3786 14.9034 12.1758C14.6034 11.2691 13.4075 10.1816 13.4075 9.11164C13.4075 6.73665 13.4075 6.11164 12.2375 4.71498C11.8589 4.26542 11.3895 3.90106 10.86 3.64581L10.2075 3.32915C10.098 3.26306 10.0036 3.1748 9.93025 3.07003C9.85692 2.96526 9.80631 2.84631 9.78169 2.72081C9.71647 2.29782 9.49281 1.91547 9.15607 1.6513C8.81933 1.38714 8.39472 1.26094 7.96836 1.29831C7.5497 1.27317 7.13671 1.40499 6.81003 1.66803C6.48335 1.93107 6.26645 2.30643 6.20169 2.72081C6.17232 2.85064 6.11477 2.97242 6.03312 3.07754C5.95147 3.18267 5.84771 3.26856 5.72919 3.32915L5.07669 3.64581C4.54756 3.90116 4.0784 4.26552 3.70003 4.71498C2.53086 6.11164 2.53086 6.73665 2.53086 9.11164C2.53086 10.1816 1.38919 11.16 1.08919 12.1208C0.90836 12.7016 0.80836 13.9883 2.32253 13.9883H7.96836Z" stroke="#FF6528" stroke-width="1.25" stroke-linecap="round" stroke-linejoin="round"/>
<path d="M10.6875 13.9883C10.6946 14.3473 10.6292 14.7041 10.4951 15.0372C10.3609 15.3704 10.1609 15.673 9.90698 15.9269C9.65305 16.1809 9.35044 16.3809 9.01731 16.515C8.68418 16.6491 8.32739 16.7146 7.96834 16.7074C7.6092 16.7151 7.25224 16.6499 6.91894 16.516C6.58564 16.382 6.28289 16.182 6.02893 15.9279C5.77496 15.6739 5.57503 15.3711 5.44117 15.0377C5.30731 14.7044 5.24228 14.3474 5.25001 13.9883" stroke="#FF6528" stroke-width="1.25" stroke-linecap="round" stroke-linejoin="round"/>
<circle cx="13" cy="4" r="3" fill="#FF0303"/>
</svg>
