<svg width="24" height="24" viewBox="0 0 24 24" fill="none" xmlns="http://www.w3.org/2000/svg">
<path fill-rule="evenodd" clip-rule="evenodd" d="M12.9489 10.7412C13.4039 11.1952 14.5259 11.3892 15.8019 11.3892C17.7459 11.3892 20.0489 10.9382 20.8989 10.2702C21.6759 9.65823 21.9829 8.74223 21.7629 7.69123C21.3099 5.52723 18.5589 2.87723 16.1029 2.23923C14.8399 1.91023 13.7659 2.16423 13.0789 2.95423C12.1109 4.07023 11.8319 9.62123 12.9489 10.7412ZM14.0209 9.69323C13.5319 9.03623 13.6799 4.68323 14.2159 3.93323C14.5179 3.59023 15.0249 3.50923 15.7249 3.69023C17.6109 4.18123 19.9589 6.39523 20.2949 7.99823C20.4279 8.63623 20.1919 8.91723 19.9709 9.09123C19.0059 9.85123 14.6589 10.1532 14.0209 9.69323Z" fill="#FF6528"/>
<path fill-rule="evenodd" clip-rule="evenodd" d="M2.16748 13.4501C2.16748 18.1101 5.95848 21.9011 10.6185 21.9011C15.1715 21.9011 17.8195 18.4391 18.6675 16.3931C19.2265 15.0431 19.2155 13.9371 18.6355 13.3571C17.9155 12.6371 16.6329 12.6766 15.1485 12.7223L15.1235 12.7231C13.7655 12.7671 12.2275 12.8161 11.6145 12.2021C10.9365 11.5241 10.8805 9.92909 10.8355 8.64709L10.8354 8.64504C10.7894 7.33801 10.7532 6.30679 10.1745 5.72909C9.50648 5.06109 8.41648 4.97009 7.18448 5.48109C4.75248 6.48809 2.16748 9.62409 2.16748 13.4501ZM7.75848 6.86709C8.10448 6.72309 8.42348 6.65109 8.67348 6.65109C8.86748 6.65109 9.02048 6.69509 9.10948 6.78409C9.2762 6.99973 9.31236 8.0197 9.33636 8.69672L9.33648 8.70009C9.39048 10.2441 9.45848 12.1671 10.5535 13.2631C11.6235 14.3331 13.4991 14.2744 15.1577 14.2225L15.1904 14.2215C16.0243 14.1955 17.2597 14.157 17.5575 14.4021C17.6315 14.5951 17.5835 15.4821 16.7905 16.7721C16.2685 17.6241 14.2775 20.4011 10.6185 20.4011C6.78548 20.4011 3.66748 17.2831 3.66748 13.4501C3.66748 9.88909 6.17648 7.52209 7.75848 6.86709Z" fill="#FF6528"/>
<path fill-rule="evenodd" clip-rule="evenodd" d="M12.9489 10.7412C13.4039 11.1952 14.5259 11.3892 15.8019 11.3892C17.7459 11.3892 20.0489 10.9382 20.8989 10.2702C21.6759 9.65823 21.9829 8.74223 21.7629 7.69123C21.3099 5.52723 18.5589 2.87723 16.1029 2.23923C14.8399 1.91023 13.7659 2.16423 13.0789 2.95423C12.1109 4.07023 11.8319 9.62123 12.9489 10.7412ZM14.0209 9.69323C13.5319 9.03623 13.6799 4.68323 14.2159 3.93323C14.5179 3.59023 15.0249 3.50923 15.7249 3.69023C17.6109 4.18123 19.9589 6.39523 20.2949 7.99823C20.4279 8.63623 20.1919 8.91723 19.9709 9.09123C19.0059 9.85123 14.6589 10.1532 14.0209 9.69323Z" stroke="#FF6528" stroke-width="0.5"/>
<path fill-rule="evenodd" clip-rule="evenodd" d="M2.16748 13.4501C2.16748 18.1101 5.95848 21.9011 10.6185 21.9011C15.1715 21.9011 17.8195 18.4391 18.6675 16.3931C19.2265 15.0431 19.2155 13.9371 18.6355 13.3571C17.9155 12.6371 16.6329 12.6766 15.1485 12.7223L15.1235 12.7231C13.7655 12.7671 12.2275 12.8161 11.6145 12.2021C10.9365 11.5241 10.8805 9.92909 10.8355 8.64709L10.8354 8.64504C10.7894 7.33801 10.7532 6.30679 10.1745 5.72909C9.50648 5.06109 8.41648 4.97009 7.18448 5.48109C4.75248 6.48809 2.16748 9.62409 2.16748 13.4501ZM7.75848 6.86709C8.10448 6.72309 8.42348 6.65109 8.67348 6.65109C8.86748 6.65109 9.02048 6.69509 9.10948 6.78409C9.2762 6.99973 9.31236 8.0197 9.33636 8.69672L9.33648 8.70009C9.39048 10.2441 9.45848 12.1671 10.5535 13.2631C11.6235 14.3331 13.4991 14.2744 15.1577 14.2225L15.1904 14.2215C16.0243 14.1955 17.2597 14.157 17.5575 14.4021C17.6315 14.5951 17.5835 15.4821 16.7905 16.7721C16.2685 17.6241 14.2775 20.4011 10.6185 20.4011C6.78548 20.4011 3.66748 17.2831 3.66748 13.4501C3.66748 9.88909 6.17648 7.52209 7.75848 6.86709Z" stroke="#FF6528" stroke-width="0.5"/>
</svg>
