<svg width="65" height="65" viewBox="0 0 65 65" fill="none" xmlns="http://www.w3.org/2000/svg">
<path d="M8.12484 8.12685C7.40654 8.12685 6.71767 8.41219 6.20976 8.9201C5.70185 9.42801 5.4165 10.1169 5.4165 10.8352V25.731C5.4165 30.3081 8.20609 34.2081 12.1873 35.806V52.8143C12.1873 53.8918 12.6153 54.9251 13.3772 55.687C14.1391 56.4488 15.1724 56.8768 16.2498 56.8768C17.3273 56.8768 18.3606 56.4488 19.1225 55.687C19.8843 54.9251 20.3123 53.8918 20.3123 52.8143V35.806C24.2936 34.2081 27.0832 30.3081 27.0832 25.731V10.8352C27.0832 10.1169 26.7978 9.42801 26.2899 8.9201C25.782 8.41219 25.0931 8.12685 24.3748 8.12685C23.6565 8.12685 22.9677 8.41219 22.4598 8.9201C21.9518 9.42801 21.6665 10.1169 21.6665 10.8352V21.6685C21.6665 22.0277 21.5238 22.3721 21.2699 22.6261C21.0159 22.88 20.6715 23.0227 20.3123 23.0227C19.9532 23.0227 19.6088 22.88 19.3548 22.6261C19.1008 22.3721 18.9582 22.0277 18.9582 21.6685V10.8352C18.9582 10.1169 18.6728 9.42801 18.1649 8.9201C17.657 8.41219 16.9681 8.12685 16.2498 8.12685C15.5315 8.12685 14.8427 8.41219 14.3348 8.9201C13.8268 9.42801 13.5415 10.1169 13.5415 10.8352V21.6685C13.5415 22.0277 13.3988 22.3721 13.1449 22.6261C12.8909 22.88 12.5465 23.0227 12.1873 23.0227C11.8282 23.0227 11.4838 22.88 11.2298 22.6261C10.9758 22.3721 10.8332 22.0277 10.8332 21.6685V10.8352C10.8332 10.1169 10.5478 9.42801 10.0399 8.9201C9.53201 8.41219 8.84313 8.12685 8.12484 8.12685ZM53.8415 8.12685C53.4894 8.12685 53.1373 8.3706 52.8123 8.56018L43.3332 14.2206V24.3768H32.4998V29.7935H35.2082L37.9165 56.8768H54.1665L56.8748 29.7935H59.5832V24.3768H48.7498V17.1727L55.5207 13.1102C56.8748 12.3518 57.2269 10.8352 56.4415 9.48101C55.8728 8.50601 54.8707 7.99143 53.8415 8.12685Z" fill="black"/>
</svg>
