<svg width="16" height="16" viewBox="0 0 16 16" fill="none" xmlns="http://www.w3.org/2000/svg">
<path fill-rule="evenodd" clip-rule="evenodd" d="M5.20761 3.85124C5.23621 3.38805 5.36809 2.7267 5.83261 2.19251C6.32394 1.62651 7.05327 1.33984 7.99927 1.33984C8.94594 1.33984 9.67461 1.62651 10.1666 2.19251C10.631 2.72659 10.7627 3.38801 10.7912 3.85124H13.3835C13.6595 3.85124 13.8835 4.07524 13.8835 4.35124C13.8835 4.62724 13.6595 4.85124 13.3835 4.85124H2.61621C2.34021 4.85124 2.11621 4.62724 2.11621 4.35124C2.11621 4.07524 2.34021 3.85124 2.61621 3.85124H5.20761ZM9.78934 3.85124C9.76412 3.54997 9.67554 3.1491 9.40794 2.84384C9.11461 2.50918 8.64061 2.33984 7.99927 2.33984C7.35861 2.33984 6.88461 2.50918 6.59061 2.84384C6.32301 3.1491 6.23463 3.54997 6.20949 3.85124H9.78934Z" fill="#FF6528"/>
<path d="M7.99252 14.6631C6.01985 14.6631 4.80519 14.3211 4.05452 13.5557C2.99582 12.4764 3.03048 10.7072 3.07843 8.25944L3.07852 8.25507C3.08985 7.68107 3.10185 7.06374 3.10185 6.39974C3.10185 6.12374 3.32585 5.89974 3.60185 5.89974C3.87785 5.89974 4.10185 6.12374 4.10185 6.39974C4.10185 7.07041 4.08985 7.69507 4.07785 8.27507C4.03319 10.5637 4.00385 12.0751 4.76852 12.8551C5.30852 13.4064 6.33319 13.6631 7.99252 13.6631C9.65519 13.6631 10.6819 13.4051 11.2245 12.8524C11.9938 12.0678 11.9652 10.5472 11.9219 8.24546L11.9207 8.18102C11.9103 7.62845 11.8992 7.03446 11.8992 6.39974C11.8992 6.12374 12.1232 5.89974 12.3992 5.89974C12.6752 5.89974 12.8992 6.12374 12.8992 6.39974C12.8992 7.05241 12.9105 7.66041 12.9219 8.22641L12.9219 8.23152C12.9679 10.6915 13.0011 12.4698 11.9379 13.5531C11.1852 14.3204 9.96785 14.6631 7.99252 14.6631Z" fill="#FF6528"/>
</svg>
