<svg width="16" height="16" viewBox="0 0 16 16" fill="none" xmlns="http://www.w3.org/2000/svg">
<path fill-rule="evenodd" clip-rule="evenodd" d="M10.7053 7.46184L11.5235 6.37191C11.9288 5.83191 12.0995 5.16658 12.0041 4.49791C11.9088 3.82925 11.5595 3.23858 11.0195 2.83325C9.90546 1.99725 8.31746 2.22191 7.48079 3.33725L2.97946 9.33391C1.63812 11.1226 2.83146 13.2532 2.88279 13.3432C2.95212 13.4639 3.06879 13.5499 3.20479 13.5812C3.24346 13.5906 3.61679 13.6732 4.13746 13.6732C4.97946 13.6732 6.20479 13.4579 7.02213 12.3686L10.6012 7.60057C10.622 7.581 10.6414 7.55939 10.6591 7.53577C10.6769 7.5121 10.6923 7.48735 10.7053 7.46184ZM3.65146 12.6419C4.17212 12.7052 5.48546 12.7499 6.22212 11.7679L9.55285 7.33072L7.10977 5.4964L3.77879 9.93391C3.02746 10.9366 3.44079 12.1639 3.65146 12.6419ZM7.70984 4.69698L10.1534 6.53074L10.7235 5.77125C11.2295 5.09791 11.0928 4.13858 10.4195 3.63258C9.74546 3.12791 8.78546 3.26458 8.28012 3.93725L7.70984 4.69698Z" fill="#FF6528"/>
<path d="M13.1553 13.4987H8.90397C8.62797 13.4987 8.40397 13.2747 8.40397 12.9987C8.40397 12.7227 8.62797 12.4987 8.90397 12.4987H13.1553C13.4313 12.4987 13.6553 12.7227 13.6553 12.9987C13.6553 13.2747 13.4313 13.4987 13.1553 13.4987Z" fill="#FF6528"/>
</svg>
