<svg width="35" height="35" viewBox="0 0 35 35" fill="none" xmlns="http://www.w3.org/2000/svg">
<path fill-rule="evenodd" clip-rule="evenodd" d="M17.5537 11.25C18.1578 11.25 18.6475 11.7397 18.6475 12.3437V22.7685C18.6475 23.3726 18.1578 23.8623 17.5537 23.8623C16.9496 23.8623 16.46 23.3726 16.46 22.7685V12.3437C16.46 11.7397 16.9496 11.25 17.5537 11.25Z" fill="#FF6528"/>
<path fill-rule="evenodd" clip-rule="evenodd" d="M11.2417 17.5547C11.2417 16.9506 11.7314 16.4609 12.3354 16.4609H22.771C23.375 16.4609 23.8647 16.9506 23.8647 17.5547C23.8647 18.1587 23.375 18.6484 22.771 18.6484H12.3354C11.7314 18.6484 11.2417 18.1587 11.2417 17.5547Z" fill="#FF6528"/>
<path fill-rule="evenodd" clip-rule="evenodd" d="M7.23384 7.23531C5.3394 9.12975 4.44775 12.2912 4.44775 17.555C4.44775 22.8188 5.3394 25.9803 7.23384 27.8748C9.12828 29.7692 12.2898 30.6608 17.5536 30.6608C22.8174 30.6608 25.9788 29.7692 27.8733 27.8748C29.7677 25.9803 30.6594 22.8188 30.6594 17.555C30.6594 12.2912 29.7677 9.12975 27.8733 7.23531C25.9788 5.34087 22.8174 4.44922 17.5536 4.44922C12.2898 4.44922 9.12828 5.34087 7.23384 7.23531ZM5.68705 5.68851C8.23016 3.1454 12.1684 2.26172 17.5536 2.26172C22.9387 2.26172 26.877 3.1454 29.4201 5.68851C31.9632 8.23163 32.8469 12.1699 32.8469 17.555C32.8469 22.9401 31.9632 26.8784 29.4201 29.4215C26.877 31.9647 22.9387 32.8483 17.5536 32.8483C12.1684 32.8483 8.23016 31.9647 5.68705 29.4215C3.14393 26.8784 2.26025 22.9401 2.26025 17.555C2.26025 12.1699 3.14393 8.23163 5.68705 5.68851Z" fill="#FF6528"/>
</svg>
