<svg width="19" height="20" viewBox="0 0 19 20" fill="none" xmlns="http://www.w3.org/2000/svg">
<path fill-rule="evenodd" clip-rule="evenodd" d="M9.5293 6.42969C9.85722 6.42969 10.123 6.70951 10.123 7.05469V13.0117C10.123 13.3569 9.85722 13.6367 9.5293 13.6367C9.20138 13.6367 8.93555 13.3569 8.93555 13.0117V7.05469C8.93555 6.70951 9.20138 6.42969 9.5293 6.42969Z" fill="#FF6528"/>
<path fill-rule="evenodd" clip-rule="evenodd" d="M6.10303 10.0312C6.10303 9.68607 6.36886 9.40625 6.69678 9.40625H12.3618C12.6897 9.40625 12.9555 9.68607 12.9555 10.0312C12.9555 10.3764 12.6897 10.6562 12.3618 10.6562H6.69678C6.36886 10.6562 6.10303 10.3764 6.10303 10.0312Z" fill="#FF6528"/>
<path fill-rule="evenodd" clip-rule="evenodd" d="M3.927 4.13502C2.89859 5.21756 2.41455 7.02413 2.41455 10.032C2.41455 13.0399 2.89859 14.8465 3.927 15.929C4.95541 17.0115 6.67165 17.521 9.52913 17.521C12.3866 17.521 14.1029 17.0115 15.1313 15.929C16.1597 14.8465 16.6437 13.0399 16.6437 10.032C16.6437 7.02413 16.1597 5.21756 15.1313 4.13502C14.1029 3.05248 12.3866 2.54297 9.52913 2.54297C6.67165 2.54297 4.95541 3.05248 3.927 4.13502ZM3.08731 3.25114C4.46786 1.79793 6.60578 1.29297 9.52913 1.29297C12.4525 1.29297 14.5904 1.79793 15.971 3.25114C17.3515 4.70434 17.8312 6.95479 17.8312 10.032C17.8312 13.1092 17.3515 15.3597 15.971 16.8129C14.5904 18.2661 12.4525 18.771 9.52913 18.771C6.60578 18.771 4.46786 18.2661 3.08731 16.8129C1.70676 15.3597 1.22705 13.1092 1.22705 10.032C1.22705 6.95479 1.70676 4.70434 3.08731 3.25114Z" fill="white"/>
</svg>
