<svg width="15" height="15" viewBox="0 0 15 15" fill="none" xmlns="http://www.w3.org/2000/svg">
<path fill-rule="evenodd" clip-rule="evenodd" d="M5.46912 7.49985C5.46912 8.61985 6.38037 9.5311 7.50037 9.5311C8.62037 9.5311 9.53162 8.61985 9.53162 7.49985C9.53162 6.37985 8.62037 5.4686 7.50037 5.4686C6.38037 5.4686 5.46912 6.37985 5.46912 7.49985ZM6.40662 7.49985C6.40662 6.89672 6.89724 6.4061 7.50037 6.4061C8.10349 6.4061 8.59412 6.89672 8.59412 7.49985C8.59412 8.10297 8.10349 8.5936 7.50037 8.5936C6.89724 8.5936 6.40662 8.10297 6.40662 7.49985Z" fill="#FF6528"/>
<path fill-rule="evenodd" clip-rule="evenodd" d="M5.48443 11.88C5.48443 12.9975 6.38881 13.9062 7.50006 13.9062C8.61131 13.9062 9.51568 12.9975 9.51568 11.88C9.51568 11.6156 9.69068 11.4862 9.76631 11.4425C9.84068 11.4006 10.0351 11.3163 10.2576 11.4444C10.7232 11.7156 11.2657 11.7869 11.7857 11.6481C12.3069 11.5081 12.7426 11.1719 13.0119 10.7019C13.5663 9.73562 13.2351 8.495 12.2744 7.93625C12.0501 7.805 12.0257 7.5875 12.0257 7.5C12.0257 7.4125 12.0501 7.195 12.2751 7.06438C13.2351 6.50625 13.5657 5.26562 13.0119 4.29812C12.7419 3.8275 12.3063 3.49187 11.7851 3.35187C11.2651 3.21438 10.7232 3.28625 10.2582 3.55625C10.0357 3.68438 9.83943 3.59937 9.76631 3.55687C9.69068 3.51375 9.51568 3.38438 9.51568 3.12C9.51568 2.0025 8.61131 1.09375 7.50006 1.09375C6.38881 1.09375 5.48443 2.0025 5.48443 3.12C5.48443 3.38438 5.30943 3.51375 5.23381 3.55687C5.16006 3.60125 4.96443 3.685 4.74318 3.55625C4.27756 3.28625 3.73568 3.21438 3.21506 3.35187C2.69381 3.49187 2.25818 3.8275 1.98818 4.29812C1.43443 5.26562 1.76506 6.50625 2.72506 7.06438C2.95006 7.195 2.97381 7.4125 2.97381 7.5C2.97381 7.58687 2.95006 7.805 2.72506 7.93562C1.76506 8.495 1.43443 9.73562 1.98818 10.7019C2.25756 11.1719 2.69318 11.5075 3.21443 11.6481C3.73381 11.7869 4.27693 11.715 4.74381 11.4437C4.96443 11.3156 5.16006 11.4006 5.23381 11.4425C5.30881 11.4862 5.48443 11.6156 5.48443 11.88ZM5.70068 10.6306C5.47818 10.5025 5.23381 10.4381 4.98943 10.4381C4.74256 10.4381 4.49631 10.5031 4.27193 10.6337C4.02318 10.7775 3.73381 10.8163 3.45756 10.7419C3.17943 10.6675 2.94568 10.4875 2.80193 10.2356C2.50256 9.715 2.68006 9.04625 3.19693 8.74625C3.64443 8.48563 3.91131 8.01938 3.91131 7.5C3.91131 6.98062 3.64443 6.51438 3.19631 6.25375C2.68068 5.95312 2.50318 5.28562 2.80131 4.76438C2.94568 4.5125 3.17943 4.33188 3.45756 4.2575C3.73506 4.185 4.02381 4.22312 4.27256 4.36687C4.71943 4.62687 5.25381 4.6275 5.70131 4.37C6.15256 4.11 6.42193 3.64313 6.42193 3.12C6.42193 2.51937 6.90568 2.03125 7.50006 2.03125C8.09443 2.03125 8.57818 2.51937 8.57818 3.12C8.57818 3.6425 8.84693 4.10938 9.29818 4.36938C9.74631 4.6275 10.2807 4.62563 10.7288 4.36687C10.9769 4.22312 11.2651 4.18375 11.5426 4.2575C11.8213 4.33188 12.0544 4.5125 12.1988 4.76438C12.4969 5.28562 12.3201 5.95375 11.8032 6.25375C11.3557 6.51438 11.0888 6.98062 11.0888 7.5C11.0888 8.01938 11.3557 8.48563 11.8032 8.74625C12.3201 9.04625 12.4976 9.715 12.1988 10.2356C12.0544 10.4875 11.8213 10.6675 11.5426 10.7419C11.2657 10.8163 10.9769 10.7775 10.7288 10.6337C10.2819 10.3737 9.74693 10.3731 9.29881 10.6306C8.84756 10.89 8.57818 11.3575 8.57818 11.88C8.57818 12.4806 8.09443 12.9688 7.50006 12.9688C6.90568 12.9688 6.42193 12.4806 6.42193 11.88C6.42193 11.3569 6.15256 10.89 5.70068 10.6306Z" fill="#FF6528"/>
</svg>
