<svg width="12" height="12" viewBox="0 0 12 12" fill="none" xmlns="http://www.w3.org/2000/svg">
<path d="M6.75296 5.26709H8.40421C8.65073 5.26709 8.85081 5.07373 8.85081 4.83547C8.85081 4.59722 8.65073 4.40385 8.40421 4.40385H6.75296C6.50584 4.40385 6.30636 4.59722 6.30636 4.83547C6.30636 5.07373 6.50584 5.26709 6.75296 5.26709Z" fill="#FF6528"/>
<path fill-rule="evenodd" clip-rule="evenodd" d="M6.34321 9.24394C6.49148 9.24797 6.64333 9.25027 6.79934 9.25027C7.96826 9.25027 9.31045 9.11733 10.2412 8.41811C11.2654 7.64867 11.9532 5.84392 11.7739 4.39425C11.6548 3.42914 11.157 2.70977 10.3728 2.3685C9.80529 2.12104 9.19255 2.14003 8.65305 2.15787L8.64767 2.15805C8.54351 2.16144 8.4405 2.1648 8.33864 2.16593C7.69672 2.17399 7.05421 2.19298 6.41169 2.21485C5.20584 2.2562 4.00058 2.31131 2.79473 2.36645L2.78765 2.36678L2.76144 2.36793C2.76204 2.28045 2.76144 2.19413 2.75966 2.10953C2.79181 0.928616 1.7283 0.46189 1.16141 0.38017C0.92084 0.343338 0.690392 0.507354 0.653472 0.743307C0.617744 0.97926 0.785667 1.19852 1.02981 1.23363C1.06494 1.23881 1.8867 1.36599 1.86645 2.10838C1.87895 2.60791 1.83489 3.17132 1.78785 3.76753L1.78777 3.7685C1.65143 5.50626 1.49691 7.47562 2.84302 8.40199C3.85354 9.09777 5.24456 9.21747 6.34321 9.24394ZM2.68331 3.77448C2.69781 3.59097 2.71209 3.41037 2.72393 3.23405L2.83052 3.22945C4.03456 3.1742 5.23921 3.11895 6.44325 3.07751C7.07862 3.05565 7.71518 3.03723 8.34995 3.02917C8.45718 3.02748 8.56555 3.02414 8.67506 3.02076L8.68223 3.02054L8.69311 3.02022C9.17441 3.00594 9.63007 2.99242 10.006 3.15578C10.5079 3.37389 10.8039 3.82508 10.8873 4.49611C11.0278 5.63904 10.4704 7.15317 9.69334 7.73615C8.85253 8.36804 7.39303 8.40775 6.36584 8.38128C5.39403 8.35768 4.1751 8.2587 3.36168 7.69931C2.4256 7.05476 2.55422 5.4169 2.67867 3.83314L2.68331 3.77448Z" fill="#FF6528"/>
<path d="M2.56572 10.6887C2.56572 11.0996 2.91169 11.434 3.33745 11.434C3.76262 11.434 4.108 11.0996 4.108 10.6887C4.108 10.2784 3.76262 9.94404 3.33745 9.94404C2.91169 9.94404 2.56572 10.2784 2.56572 10.6887Z" fill="#FF6528"/>
<path d="M8.7182 10.6887C8.7182 11.0996 9.06417 11.434 9.48933 11.434C9.9145 11.434 10.2605 11.0996 10.2605 10.6887C10.2605 10.2784 9.9145 9.94404 9.48933 9.94404C9.06417 9.94404 8.7182 10.2784 8.7182 10.6887Z" fill="#FF6528"/>
</svg>
