<svg width="21" height="21" viewBox="0 0 21 21" fill="none" xmlns="http://www.w3.org/2000/svg">
<path fill-rule="evenodd" clip-rule="evenodd" d="M11.8436 3.56921C8.17141 4.5803 4.349 5.93812 2.68302 6.89976C2.28508 7.12948 2.19721 7.28274 2.18152 7.31648C2.18892 7.34238 2.21791 7.40458 2.319 7.51181C2.5043 7.70834 2.83076 7.93884 3.30113 8.18649C3.76144 8.42885 4.31527 8.6649 4.91605 8.88825C6.11734 9.33485 7.4555 9.71207 8.50183 9.97896C9.02313 10.1119 9.46811 10.2165 9.78219 10.2878C9.93917 10.3234 10.0633 10.3506 10.1477 10.3689L10.2436 10.3894L10.2676 10.3944L10.2745 10.3959C10.5675 10.4565 10.7966 10.6854 10.8572 10.9784L10.8587 10.9856L10.8638 11.0095L10.8843 11.1055C10.9025 11.1899 10.9297 11.314 10.9653 11.4709C11.0366 11.785 11.1412 12.23 11.2742 12.7513C11.5411 13.7976 11.9183 15.1358 12.3649 16.3371C12.5882 16.9379 12.8243 17.4917 13.0666 17.952C13.3143 18.4224 13.5448 18.7488 13.7413 18.9341C13.8486 19.0352 13.9108 19.0642 13.9367 19.0716C13.9704 19.0559 14.1237 18.968 14.3534 18.5701C15.315 16.9041 16.6728 13.0817 17.6839 9.40949C18.186 7.58582 18.5933 5.83272 18.8192 4.44147C18.9325 3.74416 18.9971 3.1558 19.009 2.70345C19.0137 2.52312 19.0097 2.37378 18.9993 2.25381C18.8794 2.24342 18.73 2.23944 18.5497 2.24416C18.0973 2.256 17.509 2.32066 16.8117 2.43389C15.4204 2.65982 13.6673 3.0671 11.8436 3.56921ZM13.9509 19.0735C13.951 19.074 13.9478 19.0743 13.9409 19.0727C13.9474 19.0721 13.9508 19.0729 13.9509 19.0735ZM9.49289 11.7602C9.47899 11.7571 9.46481 11.7539 9.45038 11.7506C9.12575 11.677 8.66756 11.5693 8.13109 11.4324C7.06186 11.1597 5.66598 10.7674 4.39335 10.2942C3.75717 10.0577 3.13907 9.79637 2.60231 9.51376C2.0756 9.23645 1.57984 8.91441 1.2276 8.54081C0.876557 8.16847 0.564833 7.62532 0.719299 6.9761C0.862614 6.37374 1.35489 5.93446 1.93312 5.60066C3.77929 4.53501 7.76495 3.13639 11.4455 2.12303C13.2982 1.61292 15.1076 1.19096 16.5712 0.95329C17.3013 0.834725 17.9635 0.758991 18.5104 0.744675C18.784 0.737517 19.0434 0.745246 19.2764 0.77519C19.5003 0.803975 19.7481 0.858996 19.9677 0.975987C20.0993 1.04608 20.2071 1.1538 20.2771 1.2854C20.3941 1.50507 20.4492 1.75286 20.4779 1.97678C20.5079 2.20972 20.5156 2.46918 20.5085 2.74269C20.4941 3.28967 20.4184 3.95179 20.2998 4.68191C20.0622 6.14549 19.6402 7.95496 19.1301 9.80767C18.1167 13.4882 16.7181 17.4738 15.6525 19.32C15.3187 19.8982 14.8794 20.3905 14.277 20.5338C13.6278 20.6883 13.0847 20.3766 12.7123 20.0255C12.3387 19.6733 12.0167 19.1775 11.7394 18.6508C11.4568 18.1141 11.1954 17.496 10.9589 16.8598C10.4858 15.5872 10.0934 14.1913 9.82071 13.1221C9.68387 12.5856 9.57615 12.1274 9.50251 11.8028C9.49924 11.7883 9.49603 11.7742 9.49289 11.7602ZM2.17966 7.3022C2.18021 7.3023 2.18101 7.30575 2.18043 7.31228C2.17882 7.30537 2.17911 7.30211 2.17966 7.3022Z" fill="white"/>
<path fill-rule="evenodd" clip-rule="evenodd" d="M20.1453 1.10639C20.4382 1.39928 20.4382 1.87416 20.1453 2.16705L10.6529 11.6594C10.36 11.9523 9.88512 11.9523 9.59223 11.6594C9.29934 11.3666 9.29934 10.8917 9.59223 10.5988L19.0846 1.10639C19.3775 0.813495 19.8524 0.813495 20.1453 1.10639Z" fill="white"/>
</svg>
