<svg width="17" height="19" viewBox="0 0 17 19" fill="none" xmlns="http://www.w3.org/2000/svg">
<path d="M16.0669 11.4331L14.375 9.74125V7.5C14.3731 5.95115 13.7969 4.45803 12.7579 3.30936C11.7189 2.1607 10.2909 1.43808 8.75 1.28125V0H7.5V1.28125C5.95911 1.43808 4.5311 2.1607 3.49211 3.30936C2.45311 4.45803 1.87694 5.95115 1.875 7.5V9.74125L0.183125 11.4331C0.0659066 11.5503 3.53984e-05 11.7093 0 11.875V13.75C0 13.9158 0.065848 14.0747 0.183058 14.1919C0.300268 14.3092 0.45924 14.375 0.625 14.375H5V15C5 15.8288 5.32924 16.6237 5.91529 17.2097C6.50134 17.7958 7.2962 18.125 8.125 18.125C8.9538 18.125 9.74866 17.7958 10.3347 17.2097C10.9208 16.6237 11.25 15.8288 11.25 15V14.375H15.625C15.7908 14.375 15.9497 14.3092 16.0669 14.1919C16.1842 14.0747 16.25 13.9158 16.25 13.75V11.875C16.25 11.7093 16.1841 11.5503 16.0669 11.4331ZM10 15C10 15.4973 9.5 15.5 9.45083 16.3258C9.09919 16.6775 8.99728 15.5 8.5 15.5C8.85163 15.8516 8.00272 15.5 8.5 15.5C8.14837 15.1484 7.5 16.9973 7.5 16.5L8.5 16.8371L10 16.5V15Z" fill="white"/>
</svg>
