<svg width="18" height="19" viewBox="0 0 18 19" fill="none" xmlns="http://www.w3.org/2000/svg">
<g filter="url(#filter0_d_643_8926)">
<path d="M16.6342 12.88C16.6013 13.2069 16.4835 13.5194 16.2925 13.7867C16.1186 14.0443 15.884 14.2551 15.6093 14.4004C15.3346 14.5457 15.0283 14.6212 14.7175 14.62H12.2675C12.2242 14.8444 12.1601 15.0642 12.0758 15.2767C11.9081 15.6843 11.6611 16.0546 11.3493 16.3661C11.0375 16.6777 10.667 16.9243 10.2592 17.0917C9.84668 17.2583 9.40418 17.34 8.95918 17.3333H8.89252C8.48082 17.3295 8.0736 17.2475 7.69252 17.0917C7.27849 16.9309 6.9035 16.6838 6.59252 16.3667C6.2785 16.057 6.0317 15.686 5.86752 15.2767C5.78325 15.064 5.71908 14.8438 5.67585 14.6192H3.32585C3.01893 14.6437 2.7107 14.592 2.42863 14.4685C2.14656 14.3451 1.8994 14.1538 1.70918 13.9117C1.52922 13.6195 1.41643 13.2909 1.37896 12.9498C1.34149 12.6087 1.38028 12.2635 1.49252 11.9392C1.67372 11.4581 1.9205 11.0044 2.22585 10.5908C2.57686 10.1669 2.81226 9.65932 2.90918 9.1175C2.90918 6.7125 2.90918 5.89667 4.22585 4.33167C4.65993 3.81308 5.19974 3.39316 5.80918 3.1L6.45918 2.78334C6.491 2.76322 6.51917 2.73786 6.54252 2.70834C6.56768 2.67679 6.58484 2.63962 6.59252 2.6C6.68715 2.19363 6.88199 1.81741 7.15927 1.50563C7.43656 1.19385 7.78747 0.956425 8.18001 0.815004C8.57269 0.673234 8.99461 0.632058 9.40728 0.695233C9.81996 0.758407 10.2102 0.923921 10.5425 1.17667C10.9983 1.53974 11.2967 2.06438 11.3758 2.64167V2.725C11.4001 2.75903 11.4313 2.78744 11.4675 2.80834L12.0675 3.1C12.6758 3.39167 13.2158 3.80834 13.6508 4.32334C14.9675 5.89667 14.9675 6.7125 14.9675 9.1175C15.0792 9.6925 15.3342 10.2308 15.7092 10.6825C16.0092 11.0833 16.2525 11.5233 16.4342 11.9892C16.5708 12.2658 16.64 12.5708 16.6342 12.88Z" fill="#FF6528"/>
</g>
<defs>
<filter id="filter0_d_643_8926" x="0.365112" y="0.666443" width="17.2694" height="18.6673" filterUnits="userSpaceOnUse" color-interpolation-filters="sRGB">
<feFlood flood-opacity="0" result="BackgroundImageFix"/>
<feColorMatrix in="SourceAlpha" type="matrix" values="0 0 0 0 0 0 0 0 0 0 0 0 0 0 0 0 0 0 127 0" result="hardAlpha"/>
<feOffset dy="1"/>
<feGaussianBlur stdDeviation="0.5"/>
<feComposite in2="hardAlpha" operator="out"/>
<feColorMatrix type="matrix" values="0 0 0 0 0 0 0 0 0 0 0 0 0 0 0 0 0 0 0.25 0"/>
<feBlend mode="normal" in2="BackgroundImageFix" result="effect1_dropShadow_643_8926"/>
<feBlend mode="normal" in="SourceGraphic" in2="effect1_dropShadow_643_8926" result="shape"/>
</filter>
</defs>
</svg>
