<svg width="32" height="32" viewBox="0 0 32 32" fill="none" xmlns="http://www.w3.org/2000/svg">
<rect width="32" height="32" fill="#FF6528"/>
<path fill-rule="evenodd" clip-rule="evenodd" d="M18.4497 11.0334C18.4497 10.5425 18.8228 10.1445 19.283 10.1445H19.2905C19.7508 10.1445 20.1239 10.5425 20.1239 11.0334C20.1239 11.5243 19.7508 11.9223 19.2905 11.9223H19.283C18.8228 11.9223 18.4497 11.5243 18.4497 11.0334Z" fill="white"/>
<path fill-rule="evenodd" clip-rule="evenodd" d="M15.1089 11.0334C15.1089 10.5425 15.482 10.1445 15.9422 10.1445H15.9497C16.41 10.1445 16.7831 10.5425 16.7831 11.0334C16.7831 11.5243 16.41 11.9223 15.9497 11.9223H15.9422C15.482 11.9223 15.1089 11.5243 15.1089 11.0334Z" fill="white"/>
<path fill-rule="evenodd" clip-rule="evenodd" d="M11.7681 11.0334C11.7681 10.5425 12.1412 10.1445 12.6014 10.1445H12.6089C13.0691 10.1445 13.4422 10.5425 13.4422 11.0334C13.4422 11.5243 13.0691 11.9223 12.6089 11.9223H12.6014C12.1412 11.9223 11.7681 11.5243 11.7681 11.0334Z" fill="white"/>
<path fill-rule="evenodd" clip-rule="evenodd" d="M21.4507 4.84922C18.4438 1.64054 13.5577 1.64054 10.5507 4.84922L10.5506 4.84936C8.19571 7.36077 7.6843 11.0835 9.00601 14.1302C9.01045 14.1404 9.01465 14.1507 9.01859 14.1612C9.0954 14.3647 9.09368 14.5954 9.09022 14.7259C9.08588 14.8897 9.06889 15.0785 9.04792 15.2704C9.02809 15.452 9.00291 15.652 8.97731 15.8553L8.97199 15.8975C8.94427 16.1178 8.91605 16.344 8.89141 16.5704C8.84144 17.0298 8.81006 17.4587 8.82402 17.8018C8.83098 17.9728 8.84851 18.0995 8.87088 18.1864C8.87842 18.2156 8.88533 18.2357 8.89042 18.2487C8.90259 18.2541 8.92148 18.2615 8.94891 18.2695C9.03035 18.2934 9.14915 18.3121 9.30946 18.3195C9.63115 18.3343 10.0333 18.3009 10.4638 18.2476C10.6761 18.2214 10.8881 18.1913 11.0946 18.1617L11.134 18.1561C11.3247 18.1288 11.5122 18.102 11.6825 18.0809C11.8624 18.0585 12.0394 18.0404 12.1929 18.0358C12.3152 18.0322 12.5315 18.0304 12.7222 18.1123C12.732 18.1165 12.7416 18.1209 12.7512 18.1256C15.608 19.5349 19.0967 18.9901 21.4507 16.4779L21.4508 16.4779C24.4581 13.2696 24.4641 8.06312 21.4508 4.84934L21.4507 4.84922ZM22.3347 3.90647C18.8395 0.176968 13.1618 0.177009 9.66669 3.9066C6.94665 6.80752 6.34561 11.0959 7.84089 14.6186C7.84134 14.6342 7.84155 14.657 7.84072 14.6882C7.83796 14.7921 7.82618 14.9342 7.80631 15.1162C7.78781 15.2856 7.76403 15.4745 7.73795 15.6816L7.73311 15.7201C7.70545 15.9399 7.67582 16.177 7.64974 16.4168C7.59827 16.8899 7.55673 17.4058 7.5752 17.8596C7.58446 18.0871 7.60948 18.322 7.66558 18.5397C7.72041 18.7525 7.8174 18.9982 8.00269 19.1958L8.00298 19.1961C8.18832 19.3936 8.41861 19.4969 8.61799 19.5553C8.82205 19.6151 9.04215 19.6417 9.25538 19.6516C9.68076 19.6712 10.1643 19.6269 10.6078 19.5721C10.8326 19.5443 11.0547 19.5127 11.2608 19.4833L11.2965 19.4781C11.4909 19.4503 11.668 19.425 11.8269 19.4053C11.9974 19.3841 12.1306 19.3716 12.228 19.3686C12.2574 19.3678 12.2788 19.368 12.2934 19.3685C15.5962 20.9627 19.6153 20.3226 22.3347 17.4206C25.8294 13.6924 25.8369 7.64173 22.3347 3.90647Z" fill="white"/>
<path d="M11.7809 25.6251C11.7691 26.2295 11.7365 26.7333 11.6832 27.1362L13.2298 29.8384L12.6076 30.2295L11.4698 28.2029C11.1558 29.477 10.5869 30.1762 9.76316 30.3007V29.4918C10.1661 29.4029 10.4713 29.0177 10.6787 28.3362C10.8861 27.6488 10.9958 26.7451 11.0076 25.6251H9.84316V24.8607H11.0076V23.8562H11.7809V24.8607H12.9365V25.6251H11.7809ZM16.0032 30.7007H15.2387V27.394H14.2254V30.5851H13.4787V23.9095H14.2254V26.6029H15.2387V23.874H16.0032V30.7007ZM22.0556 27.9362V23.874H22.8644V27.9362H22.0556ZM21.5578 27.3318C21.3622 27.4266 21.0837 27.5007 20.7222 27.554C20.3607 27.6073 19.9548 27.634 19.5044 27.634H17.0689V24.034H21.1044V24.6918H17.8689V25.5184H20.9711V26.1407H17.8689V26.9673H19.5667C19.9933 26.9673 20.3815 26.9436 20.7311 26.8962C21.0807 26.8429 21.3563 26.7688 21.5578 26.674V27.3318ZM20.1178 28.1407C20.983 28.1407 21.6704 28.2444 22.18 28.4518C22.6956 28.6533 22.9533 28.9792 22.9533 29.4295C22.9533 29.8799 22.6956 30.2058 22.18 30.4073C21.6704 30.6088 20.983 30.7095 20.1178 30.7095C19.2585 30.7095 18.5711 30.6088 18.0556 30.4073C17.5459 30.2058 17.2911 29.8799 17.2911 29.4295C17.2911 28.9792 17.5459 28.6533 18.0556 28.4518C18.5711 28.2444 19.2585 28.1407 20.1178 28.1407ZM20.1178 30.0429C20.7104 30.0429 21.1874 29.9925 21.5489 29.8918C21.9163 29.791 22.1 29.637 22.1 29.4295C22.1 29.2162 21.9193 29.0592 21.5578 28.9584C21.1963 28.8577 20.7163 28.8073 20.1178 28.8073C19.5252 28.8073 19.0481 28.8577 18.6867 28.9584C18.3252 29.0592 18.1444 29.2162 18.1444 29.4295C18.1444 29.6429 18.3252 29.7999 18.6867 29.9007C19.0481 29.9955 19.5252 30.0429 20.1178 30.0429Z" fill="white"/>
</svg>
