<svg width="100" height="100" viewBox="0 0 100 100" fill="none" xmlns="http://www.w3.org/2000/svg">
<rect width="100" height="100" fill="#FF6528"/>
<path fill-rule="evenodd" clip-rule="evenodd" d="M57.6543 34.4809C57.6543 32.9468 58.8202 31.7031 60.2585 31.7031H60.2819C61.7201 31.7031 62.8861 32.9468 62.8861 34.4809C62.8861 36.015 61.7201 37.2587 60.2819 37.2587H60.2585C58.8202 37.2587 57.6543 36.015 57.6543 34.4809Z" fill="white"/>
<path fill-rule="evenodd" clip-rule="evenodd" d="M47.2144 34.4809C47.2144 32.9468 48.3803 31.7031 49.8185 31.7031H49.842C51.2802 31.7031 52.4461 32.9468 52.4461 34.4809C52.4461 36.015 51.2802 37.2587 49.842 37.2587H49.8185C48.3803 37.2587 47.2144 36.015 47.2144 34.4809Z" fill="white"/>
<path fill-rule="evenodd" clip-rule="evenodd" d="M36.7744 34.4809C36.7744 32.9468 37.9403 31.7031 39.3786 31.7031H39.402C40.8403 31.7031 42.0062 32.9468 42.0062 34.4809C42.0062 36.015 40.8403 37.2587 39.402 37.2587H39.3786C37.9403 37.2587 36.7744 36.015 36.7744 34.4809Z" fill="white"/>
<path fill-rule="evenodd" clip-rule="evenodd" d="M67.0326 15.1597C57.6359 5.13254 42.367 5.13254 32.9702 15.1597L32.9698 15.1601C25.6107 23.0083 24.0126 34.6419 28.1429 44.1626C28.1568 44.1946 28.1699 44.2269 28.1823 44.2596C28.4223 44.8957 28.4169 45.6166 28.4061 46.0243C28.3925 46.5362 28.3394 47.126 28.2739 47.726C28.2119 48.2932 28.1332 48.9182 28.0533 49.5535L28.0366 49.6856C27.95 50.374 27.8618 51.0807 27.7848 51.7885C27.6287 53.2239 27.5306 54.5643 27.5742 55.6366C27.596 56.1709 27.6507 56.5669 27.7207 56.8382C27.7442 56.9297 27.7658 56.9926 27.7817 57.0331C27.8197 57.0501 27.8788 57.0731 27.9645 57.0982C28.219 57.1727 28.5903 57.2311 29.0912 57.2542C30.0965 57.3006 31.3531 57.1961 32.6986 57.0297C33.3621 56.9476 34.0246 56.8536 34.6699 56.7613L34.7929 56.7437C35.3887 56.6585 35.9748 56.5746 36.5068 56.5085C37.0692 56.4388 37.6221 56.3822 38.102 56.3678C38.4842 56.3564 39.1599 56.3507 39.7561 56.6068C39.7866 56.6199 39.8167 56.6338 39.8465 56.6485C48.774 61.0525 59.6763 59.3498 67.0326 51.4994L67.0328 51.4992C76.4308 41.4732 76.4495 25.2031 67.033 15.1601L67.0326 15.1597ZM69.7949 12.2136C58.8726 0.558884 41.1298 0.559012 30.2075 12.214C21.7074 21.2794 19.8292 34.6805 24.5019 45.6889C24.5033 45.7376 24.504 45.8089 24.5014 45.9066C24.4928 46.2313 24.456 46.6753 24.3939 47.2439C24.3361 47.7732 24.2618 48.3635 24.1802 49.0109L24.1651 49.1313C24.0787 49.8182 23.9861 50.5589 23.9046 51.3082C23.7437 52.7869 23.6139 54.3989 23.6716 55.8172C23.7006 56.5282 23.7788 57.2621 23.9541 57.9425C24.1254 58.6074 24.4285 59.3751 25.0076 59.9929L25.0085 59.9938C25.5877 60.6109 26.3073 60.9337 26.9304 61.1162C27.5681 61.3029 28.2559 61.3862 28.9222 61.417C30.2515 61.4784 31.7625 61.34 33.1485 61.1686C33.8509 61.0818 34.5452 60.9831 35.1891 60.891L35.3008 60.875C35.9081 60.7881 36.4617 60.7089 36.9582 60.6473C37.4911 60.5812 37.9073 60.542 38.2117 60.5329C38.3035 60.5301 38.3703 60.5308 38.416 60.5323C48.7373 65.5144 61.297 63.5139 69.7951 54.4453C80.7162 42.7946 80.7394 23.8863 69.7949 12.2136Z" fill="white"/>
<path d="M39.3273 81.0667C39.2977 82.5778 39.2162 83.837 39.0829 84.8444L42.9496 91.6L41.394 92.5778L38.5496 87.5111C37.7644 90.6963 36.3422 92.4444 34.2829 92.7556V90.7333C35.2903 90.5111 36.0533 89.5481 36.5718 87.8444C37.0903 86.1259 37.3644 83.8667 37.394 81.0667H34.4829V79.1556H37.394V76.6444H39.3273V79.1556H42.2162V81.0667H39.3273ZM49.8829 93.7556H47.9718V85.4889H45.4385V93.4667H43.5718V76.7778H45.4385V83.5111H47.9718V76.6889H49.8829V93.7556ZM65.0139 86.8444V76.6889H67.0361V86.8444H65.0139ZM63.7694 85.3333C63.2806 85.5704 62.5843 85.7556 61.6806 85.8889C60.7769 86.0222 59.762 86.0889 58.6361 86.0889H52.5472V77.0889H62.6361V78.7333H54.5472V80.8H62.3028V82.3556H54.5472V84.4222H58.7917C59.8583 84.4222 60.8287 84.363 61.7028 84.2444C62.5769 84.1111 63.2657 83.9259 63.7694 83.6889V85.3333ZM60.1694 87.3556C62.3324 87.3556 64.0509 87.6148 65.325 88.1333C66.6139 88.637 67.2583 89.4519 67.2583 90.5778C67.2583 91.7037 66.6139 92.5185 65.325 93.0222C64.0509 93.5259 62.3324 93.7778 60.1694 93.7778C58.0213 93.7778 56.3028 93.5259 55.0139 93.0222C53.7398 92.5185 53.1028 91.7037 53.1028 90.5778C53.1028 89.4519 53.7398 88.637 55.0139 88.1333C56.3028 87.6148 58.0213 87.3556 60.1694 87.3556ZM60.1694 92.1111C61.6509 92.1111 62.8435 91.9852 63.7472 91.7333C64.6657 91.4815 65.125 91.0963 65.125 90.5778C65.125 90.0444 64.6731 89.6519 63.7694 89.4C62.8657 89.1481 61.6657 89.0222 60.1694 89.0222C58.688 89.0222 57.4954 89.1481 56.5917 89.4C55.688 89.6519 55.2361 90.0444 55.2361 90.5778C55.2361 91.1111 55.688 91.5037 56.5917 91.7556C57.4954 91.9926 58.688 92.1111 60.1694 92.1111Z" fill="white"/>
</svg>
