<svg width="32" height="32" viewBox="0 0 32 32" fill="none" xmlns="http://www.w3.org/2000/svg">
<rect width="32" height="32" fill="#FF6528"/>
<path d="M8.4641 30.1538H7.69965V23.3271H8.4641V30.1538ZM6.88188 23.3627V30.0382H6.12632V26.8471H5.19299V29.7538H2.39299V23.5671H5.19299V26.056H6.12632V23.3627H6.88188ZM3.13965 24.3316V28.9893H4.42854V24.3316H3.13965ZM9.68094 26.536V23.3982H10.5076V25.7538H15.3254V26.536H9.68094ZM14.152 28.136V30.3138H13.352V28.136H11.6098V30.3138H10.8098V28.136H9.23649V27.3627H15.7254V28.136H14.152ZM22.7644 29.8338H16.2756V29.0427H19.1111V27.5493H16.7022V23.5227H17.4933V24.7138H21.5467V23.5227H22.3378V27.5493H19.92V29.0427H22.7644V29.8338ZM21.5467 26.7938V25.4693H17.4933V26.7938H21.5467ZM28.5946 30.1538V23.3271H29.4035V30.1538H28.5946ZM27.2346 25.2293C27.2346 26.136 27.0865 26.9301 26.7902 27.6116C26.4998 28.2871 26.082 28.8116 25.5368 29.1849C24.9917 29.5523 24.3517 29.736 23.6168 29.736V28.936C24.1917 28.936 24.6894 28.7879 25.1102 28.4916C25.5309 28.1893 25.8509 27.7627 26.0702 27.2116C26.2954 26.6545 26.408 25.9997 26.408 25.2471V24.3316H23.6168V23.5671H27.2346V25.2293Z" fill="white"/>
<path d="M8.4641 30.1538H7.69965V23.3271H8.4641V30.1538ZM6.88188 23.3627V30.0382H6.12632V26.8471H5.19299V29.7538H2.39299V23.5671H5.19299V26.056H6.12632V23.3627H6.88188ZM3.13965 24.3316V28.9893H4.42854V24.3316H3.13965ZM9.68094 26.536V23.3982H10.5076V25.7538H15.3254V26.536H9.68094ZM14.152 28.136V30.3138H13.352V28.136H11.6098V30.3138H10.8098V28.136H9.23649V27.3627H15.7254V28.136H14.152ZM22.7644 29.8338H16.2756V29.0427H19.1111V27.5493H16.7022V23.5227H17.4933V24.7138H21.5467V23.5227H22.3378V27.5493H19.92V29.0427H22.7644V29.8338ZM21.5467 26.7938V25.4693H17.4933V26.7938H21.5467ZM28.5946 30.1538V23.3271H29.4035V30.1538H28.5946ZM27.2346 25.2293C27.2346 26.136 27.0865 26.9301 26.7902 27.6116C26.4998 28.2871 26.082 28.8116 25.5368 29.1849C24.9917 29.5523 24.3517 29.736 23.6168 29.736V28.936C24.1917 28.936 24.6894 28.7879 25.1102 28.4916C25.5309 28.1893 25.8509 27.7627 26.0702 27.2116C26.2954 26.6545 26.408 25.9997 26.408 25.2471V24.3316H23.6168V23.5671H27.2346V25.2293Z" fill="black"/>
<rect width="20" height="22.2921" transform="translate(6)" fill="#FF6528"/>
<rect width="20" height="22.2921" transform="translate(6)" fill="#FF6528"/>
<path d="M19.0967 15.0699H13.0801" stroke="black" stroke-width="1.5" stroke-linecap="round" stroke-linejoin="round"/>
<path d="M19.0967 11.1793H13.0801" stroke="black" stroke-width="1.5" stroke-linecap="round" stroke-linejoin="round"/>
<path d="M15.3759 7.30036H13.0801" stroke="black" stroke-width="1.5" stroke-linecap="round" stroke-linejoin="round"/>
<path fill-rule="evenodd" clip-rule="evenodd" d="M19.2572 2.55469C19.2572 2.55469 12.8597 2.5584 12.8497 2.5584C10.5497 2.57419 9.12549 4.26096 9.12549 6.83385V15.3755C9.12549 17.9613 10.5605 19.6546 12.8805 19.6546C12.8805 19.6546 19.2772 19.6518 19.288 19.6518C21.588 19.636 23.013 17.9483 23.013 15.3755V6.83385C23.013 4.24796 21.5772 2.55469 19.2572 2.55469Z" stroke="black" stroke-width="1.5" stroke-linecap="round" stroke-linejoin="round"/>
</svg>
