<svg width="100" height="100" viewBox="0 0 100 100" fill="none" xmlns="http://www.w3.org/2000/svg">
<rect width="100" height="100" fill="#FF6528"/>
<path d="M31.1602 90.9118H29.2491V73.8451H31.1602V90.9118ZM27.2047 73.934V90.6229H25.3158V82.6451H22.9825V89.9118H15.9825V74.4451H22.9825V80.6674H25.3158V73.934H27.2047ZM17.8491 76.3563V88.0007H21.0714V76.3563H17.8491ZM34.2023 81.8674V74.0229H36.269V79.9118H48.3135V81.8674H34.2023ZM45.3801 85.8674V91.3118H43.3801V85.8674H39.0246V91.3118H37.0246V85.8674H33.0912V83.934H49.3135V85.8674H45.3801ZM66.9111 90.1118H50.6889V88.134H57.7778V84.4007H51.7556V74.334H53.7333V77.3118H63.8667V74.334H65.8444V84.4007H59.8V88.134H66.9111V90.1118ZM63.8667 82.5118V79.2007H53.7333V82.5118H63.8667ZM81.4865 90.9118V73.8451H83.5088V90.9118H81.4865ZM78.0865 78.6007C78.0865 80.8674 77.7162 82.8525 76.9754 84.5562C76.2495 86.2451 75.2051 87.5562 73.8421 88.4896C72.4791 89.4081 70.8791 89.8674 69.0421 89.8674V87.8674C70.4791 87.8674 71.7236 87.497 72.7754 86.7562C73.8273 86.0007 74.6273 84.934 75.1754 83.5562C75.7384 82.1637 76.0199 80.5266 76.0199 78.6451V76.3563H69.0421V74.4451H78.0865V78.6007Z" fill="white"/>
<path d="M31.1602 90.9118H29.2491V73.8451H31.1602V90.9118ZM27.2047 73.934V90.6229H25.3158V82.6451H22.9825V89.9118H15.9825V74.4451H22.9825V80.6674H25.3158V73.934H27.2047ZM17.8491 76.3563V88.0007H21.0714V76.3563H17.8491ZM34.2023 81.8674V74.0229H36.269V79.9118H48.3135V81.8674H34.2023ZM45.3801 85.8674V91.3118H43.3801V85.8674H39.0246V91.3118H37.0246V85.8674H33.0912V83.934H49.3135V85.8674H45.3801ZM66.9111 90.1118H50.6889V88.134H57.7778V84.4007H51.7556V74.334H53.7333V77.3118H63.8667V74.334H65.8444V84.4007H59.8V88.134H66.9111V90.1118ZM63.8667 82.5118V79.2007H53.7333V82.5118H63.8667ZM81.4865 90.9118V73.8451H83.5088V90.9118H81.4865ZM78.0865 78.6007C78.0865 80.8674 77.7162 82.8525 76.9754 84.5562C76.2495 86.2451 75.2051 87.5562 73.8421 88.4896C72.4791 89.4081 70.8791 89.8674 69.0421 89.8674V87.8674C70.4791 87.8674 71.7236 87.497 72.7754 86.7562C73.8273 86.0007 74.6273 84.934 75.1754 83.5562C75.7384 82.1637 76.0199 80.5266 76.0199 78.6451V76.3563H69.0421V74.4451H78.0865V78.6007Z" fill="white"/>
<rect width="62.5" height="69.6629" transform="translate(18.75)" fill="#FF6528"/>
<rect width="62.5" height="69.6629" transform="translate(18.75)" fill="#FF6528"/>
<path d="M59.6776 47.088H40.8755" stroke="white" stroke-width="3" stroke-linecap="round" stroke-linejoin="round"/>
<path d="M59.6776 34.9357H40.8755" stroke="white" stroke-width="3" stroke-linecap="round" stroke-linejoin="round"/>
<path d="M48.05 22.8146H40.8755" stroke="white" stroke-width="3" stroke-linecap="round" stroke-linejoin="round"/>
<path fill-rule="evenodd" clip-rule="evenodd" d="M60.1785 7.98047C60.1785 7.98047 40.1864 7.99208 40.1551 7.99208C32.9676 8.04142 28.5171 13.3126 28.5171 21.3528V48.0454C28.5171 56.1263 33.0015 61.4177 40.2515 61.4177C40.2515 61.4177 60.241 61.409 60.2749 61.409C67.4624 61.3597 71.9155 56.0856 71.9155 48.0454V21.3528C71.9155 13.2719 67.4285 7.98047 60.1785 7.98047Z" stroke="white" stroke-width="3" stroke-linecap="round" stroke-linejoin="round"/>
</svg>
