<svg width="40" height="40" viewBox="0 0 40 40" fill="none" xmlns="http://www.w3.org/2000/svg">
<rect width="40" height="40" fill="#FF6528"/>
<path d="M11.5221 36.4025H10.6621V28.7225H11.5221V36.4025ZM9.74211 28.7625V36.2725H8.89211V32.6825H7.84211V35.9525H4.69211V28.9925H7.84211V31.7925H8.89211V28.7625H9.74211ZM5.53211 29.8525V35.0925H6.98211V29.8525H5.53211ZM12.8911 32.3325V28.8025H13.8211V31.4525H19.2411V32.3325H12.8911ZM17.9211 34.1325V36.5825H17.0211V34.1325H15.0611V36.5825H14.1611V34.1325H12.3911V33.2625H19.6911V34.1325H17.9211ZM27.61 36.0425H20.31V35.1525H23.5V33.4725H20.79V28.9425H21.68V30.2825H26.24V28.9425H27.13V33.4725H24.41V35.1525H27.61V36.0425ZM26.24 32.6225V31.1325H21.68V32.6225H26.24ZM34.1689 36.4025V28.7225H35.0789V36.4025H34.1689ZM32.6389 30.8625C32.6389 31.8825 32.4723 32.7758 32.1389 33.5425C31.8123 34.3025 31.3423 34.8925 30.7289 35.3125C30.1156 35.7258 29.3956 35.9325 28.5689 35.9325V35.0325C29.2156 35.0325 29.7756 34.8658 30.2489 34.5325C30.7223 34.1925 31.0823 33.7125 31.3289 33.0925C31.5823 32.4658 31.7089 31.7292 31.7089 30.8825V29.8525H28.5689V28.9925H32.6389V30.8625Z" fill="white"/>
<path d="M11.5221 36.4025H10.6621V28.7225H11.5221V36.4025ZM9.74211 28.7625V36.2725H8.89211V32.6825H7.84211V35.9525H4.69211V28.9925H7.84211V31.7925H8.89211V28.7625H9.74211ZM5.53211 29.8525V35.0925H6.98211V29.8525H5.53211ZM12.8911 32.3325V28.8025H13.8211V31.4525H19.2411V32.3325H12.8911ZM17.9211 34.1325V36.5825H17.0211V34.1325H15.0611V36.5825H14.1611V34.1325H12.3911V33.2625H19.6911V34.1325H17.9211ZM27.61 36.0425H20.31V35.1525H23.5V33.4725H20.79V28.9425H21.68V30.2825H26.24V28.9425H27.13V33.4725H24.41V35.1525H27.61V36.0425ZM26.24 32.6225V31.1325H21.68V32.6225H26.24ZM34.1689 36.4025V28.7225H35.0789V36.4025H34.1689ZM32.6389 30.8625C32.6389 31.8825 32.4723 32.7758 32.1389 33.5425C31.8123 34.3025 31.3423 34.8925 30.7289 35.3125C30.1156 35.7258 29.3956 35.9325 28.5689 35.9325V35.0325C29.2156 35.0325 29.7756 34.8658 30.2489 34.5325C30.7223 34.1925 31.0823 33.7125 31.3289 33.0925C31.5823 32.4658 31.7089 31.7292 31.7089 30.8825V29.8525H28.5689V28.9925H32.6389V30.8625Z" fill="white"/>
<rect width="25" height="27.8652" transform="translate(7.5)" fill="#FF6528"/>
<path d="M23.8709 18.8344H16.3501" stroke="white" stroke-width="2" stroke-linecap="round" stroke-linejoin="round"/>
<path d="M23.8709 13.9751H16.3501" stroke="white" stroke-width="2" stroke-linecap="round" stroke-linejoin="round"/>
<path d="M19.2199 9.12349H16.3501" stroke="white" stroke-width="2" stroke-linecap="round" stroke-linejoin="round"/>
<path fill-rule="evenodd" clip-rule="evenodd" d="M24.0713 3.19141C24.0713 3.19141 16.0744 3.19605 16.0619 3.19605C13.1869 3.21579 11.4067 5.32425 11.4067 8.54036V19.2174C11.4067 22.4497 13.2005 24.5663 16.1005 24.5663C16.1005 24.5663 24.0963 24.5628 24.1099 24.5628C26.9849 24.5431 28.7661 22.4335 28.7661 19.2174V8.54036C28.7661 5.308 26.9713 3.19141 24.0713 3.19141Z" stroke="white" stroke-width="2" stroke-linecap="round" stroke-linejoin="round"/>
</svg>
